<svg fill="none" height="195" viewBox="0 0 167 195" width="167" xmlns="http://www.w3.org/2000/svg"><g fill="#fe6a6e"><path d="m94.2182 41.2934c1.7285-.826 3.0825-2.2752 3.7917-4.0582.7091-1.7829.7212-3.7685.0337-5.56-.6875-1.7915-2.0238-3.2571-3.7422-4.104-1.7183-.847-3.6922-1.0129-5.5272-.4647-.481-1.0611-1.2517-1.964-2.223-2.6046-.9712-.6405-2.1035-.9925-3.2659-1.0152-1.1624-.0228-2.3075.2846-3.303.8867-.9954.602-1.8007 1.4741-2.3226 2.5155-.6402-.1711-1.3-.2569-1.9625-.2553-1.7662.031-3.4666.6775-4.8091 1.8283-1.3426 1.1509-2.2436 2.7344-2.5483 4.4787-.3047 1.7443.0059 3.5404.8784 5.0802.8726 1.5397 2.2526 2.7269 3.9032 3.3577v4.0196h21.0496c.0094-1.3714.0283-2.7428.0472-4.1047z"/><path d="m17.9832 159.508c.5189.322 1.0944.653 1.7266.946.622.338 1.2209.717 1.7926 1.135.5613.403 1.0631.884 1.4908 1.428.4279.552.7131 1.202.8303 1.892.1155.658.0636 1.334-.151 1.967-.203.628-.5232 1.212-.9435 1.721-.4362.519-.968.95-1.5662 1.267-.6117.324-1.2825.521-1.9719.577-1.0509.089-2.1086.055-3.1513-.104-.9952-.165-1.9696-.437-2.906-.813-.377-.139-.7429-.307-1.0945-.501-.2739-.137-.4958-.359-.6321-.634-.0731-.249-.0892-.51-.0472-.766.0322-.349.1083-.692.2264-1.022.1228-.333.2843-.65.4812-.945.1675-.266.4062-.479.6888-.615.3481-.159.7354-.212 1.1133-.151l.4529.132.8114.227.9058.265c.225.072.4553.125.6887.161.4204.116.8579.158 1.2926.123.2548-.048.3963-.142.4057-.275.0095-.132-.0755-.302-.2925-.492-.2484-.226-.5241-.419-.8208-.576-.434-.218-.8775-.445-1.3492-.663-.4718-.217-.9435-.454-1.3775-.709-.4456-.273-.8628-.59-1.2455-.946-.3952-.363-.7158-.8-.9435-1.286-.4311-.714-.6412-1.54-.6038-2.374.0415-.764.2822-1.505.6982-2.147.4262-.672.9928-1.243 1.6606-1.674.7012-.464 1.4866-.785 2.3115-.946.5038-.099 1.0153-.153 1.5285-.16.5395-.016 1.0794.016 1.6134.094.5411.077 1.0746.2 1.5945.369.5128.155 1.0042.375 1.4625.653.2288.11.4314.269.5941.465.1628.195.2819.424.3494.67.1041.435.1041.888 0 1.324-.0908.411-.2268.81-.4058 1.191-.1205.282-.3206.522-.5755.691-.2451.152-.5339.219-.8208.189-.3937-.042-.7787-.144-1.1417-.303-.5462-.216-1.1164-.365-1.6983-.444-.3863-.076-.7836-.076-1.1699 0-.2736.075-.3963.208-.3869.397.0095.189.1604.407.5756.662z"/><path d="m45.2881 153.975c.1709.051.3201.158.4246.303.0961.136.1635.291.1981.454.1339.588.2222 1.186.2642 1.787.0661.719.1038 1.495.1321 2.336.0283.842 0 1.722 0 2.63 0 .908-.0566 1.806-.0943 2.686-.0378.879-.1038 1.712-.1699 2.506-.066.795-.1415 1.485-.2075 2.071-.0272.141-.0782.275-.151.398-.0728.117-.1733.214-.2925.283-.1491.083-.3122.138-.4812.161l-.9435.085c-.465.029-.9313.029-1.3964 0-.4516-.005-.9011-.062-1.3397-.17-.1678-.02-.3286-.08-.4694-.173-.1409-.094-.258-.219-.342-.366-.0823-.264-.1299-.537-.1416-.813 0-.417-.0566-.946-.0755-1.523-.0188-.577 0-1.277 0-2.005 0-.729 0-1.466 0-2.213-.2641.387-.5189.737-.7642 1.068-.2453.331-.4623.625-.6699.88-.1642.221-.3406.432-.5283.634-.0935.121-.2087.223-.3397.302-.2912.174-.6105.296-.9435.36-.3285.071-.6639.106-1.0001.104-.3171.004-.6337-.027-.9435-.095-.2372-.043-.4663-.123-.6793-.236-.143-.115-.2756-.241-.3963-.379-.1887-.198-.4057-.454-.6699-.756l-.8492-1.05c-.3019-.378-.6227-.785-.9435-1.211 0 .766.0755 1.523.1038 2.28.0283.756 0 1.447 0 2.08 0 .634 0 1.164 0 1.599.0027.281-.0163.563-.0566.842-.0977.256-.2856.468-.5283.595-.2839.131-.5863.217-.8964.256-.3962.066-.8019.104-1.2265.132-.4246.029-.8114 0-1.1794 0-.2737-.002-.5461-.036-.8114-.104-.1404-.041-.2717-.108-.3869-.199-.1052-.097-.175-.227-.1981-.368-.2547-2.043-.4623-3.982-.6133-5.836-.066-.785-.1321-1.589-.1887-2.421-.0566-.832-.1038-1.617-.1321-2.384-.0283-.766-.0566-1.484-.0566-2.146-.0057-.566.0227-1.131.0849-1.693.0152-.122.0571-.238.1227-.341.0702-.112.156-.214.2547-.303.1337-.12.2913-.21.4624-.264.2304-.091.4714-.151.717-.18.3019-.047.6416-.085.9907-.104.3491-.019.7265 0 1.1039 0 .3774 0 .7359 0 1.0662 0 .3302 0 .6132.066.868.113.1872.032.3667.099.5283.199.3635.368.6949.767.9907 1.192.3774.51.7548 1.078 1.1322 1.683.3774.605.7737 1.23 1.1605 1.892.3869.662.736 1.201 1.0568 1.702.6887-.889 1.2926-1.693 1.8115-2.402.5189-.709.9435-1.334 1.3964-1.892.3485-.459.7234-.898 1.1227-1.314.2887-.319.6303-.584 1.0096-.785.3035-.113.621-.183.9435-.208.4115-.029.8245-.029 1.236 0 .3883.01.7757.041 1.1605.094.2641.039.5214.116.7642.227z"/><path d="m58.0254 153.464c.2863.262.5091.585.651.946.2642.539.5661 1.211.9435 2.015.3774.804.6699 1.712 1.0284 2.724.3585 1.012.6982 2.043 1.0284 3.092.3303 1.05.6322 2.091.9435 3.103.3114 1.012.519 1.938.6982 2.752.0332.146.0332.298 0 .444-.0369.126-.0943.244-.1698.35-.0981.139-.2364.245-.3963.303-.1887.076-.4906.199-.9435.34-.4511.154-.9111.281-1.3775.379-.4517.104-.914.154-1.3775.151-.3458.019-.6849-.1-.9435-.331-.1517-.193-.2756-.406-.368-.634-.1509-.331-.3208-.747-.5189-1.239l-1.3115-.179c-.4529-.057-.8963-.123-1.3303-.199-.434-.066-.8397-.132-1.2266-.208l-1.0001-.189c-.1509.378-.2925.719-.4057 1.021-.1132.303-.2264.568-.3019.785-.0755.218-.1887.483-.2547.681-.0443.134-.1346.248-.2548.322-.115.067-.2444.106-.3774.113-.2091.037-.423.037-.6321 0-.3004-.043-.5969-.109-.8869-.198-.3212-.087-.6363-.194-.9435-.322-.2356-.101-.45-.245-.6322-.425-.1563-.173-.2377-.401-.2264-.634.0358-.355.1021-.706.1981-1.05.1227-.492.2736-1.078.4718-1.75.1981-.671.4245-1.399.6793-2.194.2547-.794.5283-1.598.802-2.412.2736-.813.5472-1.608.8208-2.393.2736-.785.5284-1.484.7642-2.118.2359-.634.4435-1.182.6322-1.636.1887-.454.3113-.748.3963-.946.1415-.186.3355-.324.5566-.397.3045-.121.6207-.21.9435-.265.3774-.057.7737-.114 1.1983-.142.4178-.028.837-.028 1.2548 0 .3667.022.732.063 1.0945.123.2662.038.5263.111.7737.217zm-4.4534 10.215 1.0851.161 1.1793.189c-.2075-.615-.4057-1.22-.5944-1.825-.1887-.606-.3774-1.202-.5566-1.788-.1699.53-.3491 1.069-.5378 1.617-.1887.549-.368 1.097-.5756 1.646z"/><path d="m71.6307 152.273c1.1215-.07 2.2449.104 3.2928.51.9427.361 1.7958.922 2.5003 1.646.6632.679 1.1576 1.506 1.4436 2.412.2868.919.3259 1.898.1132 2.837-.1018.469-.2602.923-.4718 1.353-.2182.443-.4739.867-.7642 1.267-.2958.396-.6309.76-1.0001 1.088-.3623.323-.754.611-1.17.86.2454.152.4718.322.7077.502l.6604.548c.6014.51 1.1314 1.098 1.5757 1.75.0395.087.068.18.0849.274.0252.096.0252.197 0 .293-.048.13-.1256.247-.2264.341l-.2925.284-.434.387c-.1688.148-.3452.287-.5284.417l-.5567.406c-.1993.151-.4072.29-.6227.416-.1424.089-.3045.141-.4717.152-.1694-.008-.3331-.063-.4718-.161-.2203-.144-.4315-.302-.6321-.473l-.8492-.671c-.3208-.256-.6321-.511-.9435-.757-.3113-.246-.5-.416-.7548-.615l-.7076-.586c0 .624 0 1.22 0 1.768 0 .549 0 1.031-.0755 1.466-.024.159-.0651.314-.1227.464-.0666.128-.1562.244-.2641.34-.1316.117-.2967.19-.4718.208-.3119.061-.6269.105-.9435.133-.4745.028-.9502.028-1.4247 0-.4623-.018-.9212-.088-1.3681-.208-.1796-.036-.3495-.11-.4977-.218-.1483-.108-.2714-.246-.3608-.407-.1073-.306-.1801-.623-.2171-.945-.0754-.502-.1509-1.116-.217-1.845-.066-.728-.1321-1.532-.1887-2.421-.0566-.889-.1132-1.787-.1604-2.714-.0471-.927-.0943-1.835-.1226-2.724-.0283-.889-.0661-1.703-.0755-2.431-.0094-.728 0-1.352 0-1.891-.0109-.336.0112-.672.0661-1.003.0705-.196.1806-.375.3235-.527.1429-.151.3154-.271.5067-.353.5447-.28 1.1213-.493 1.7172-.633.7235-.18 1.4578-.313 2.1984-.397.7265-.038 1.4907-.095 2.2172-.142zm-.7359 8.918c.3874-.037.7681-.126 1.1322-.264.4079-.136.7882-.345 1.1227-.615.3189-.25.5716-.575.736-.946.0856-.207.1297-.429.1297-.652 0-.224-.0441-.446-.1297-.653-.1124-.276-.311-.509-.5661-.662-.2909-.167-.6113-.276-.9435-.322-.3352-.043-.6744-.043-1.0096 0-.3212.023-.6383.086-.9435.189.0755.568.1415 1.192.217 1.892.0755.7.1699 1.324.2548 2.052z"/><path d="m94.0295 153.02c.1269.031.248.082.3586.151.1088.077.1991.177.2641.293.0828.15.1372.313.1604.483 0 .217 0 .548 0 1.002.0278.473.0278.946 0 1.419-.0408.463-.1197.921-.2358 1.371-.0282.165-.0885.322-.1776.464-.089.141-.205.263-.3414.359-.2859.099-.5846.157-.8869.17-.4623 0-1.0284.076-1.6983.104 0 .549 0 1.126 0 1.741l-.0566 1.891c0 .631-.0283 1.261-.0849 1.892 0 .634-.0755 1.229-.1132 1.806-.0849 1.353-.1887 2.696-.3114 4.039-.0046.073-.0267.144-.0645.206-.0378.063-.0901.115-.1525.153-.1448.096-.2999.175-.4623.237-.3068.09-.6239.141-.9435.151-.4246 0-.8775.057-1.3681.066-.4785.009-.9571-.007-1.4341-.047-.3713-.025-.737-.104-1.085-.236-.1366-.039-.2635-.106-.3725-.198-.1089-.091-.1974-.204-.2597-.332-.0726-.266-.1169-.538-.1321-.813 0-.436-.0754-.946-.1132-1.608-.0377-.662-.0566-1.334-.0849-2.109-.0283-.776 0-1.57 0-2.384 0-.813 0-1.589 0-2.364 0-.776 0-1.476 0-2.128-.7925 0-1.4719-.057-2.038-.095-.3593-.002-.7172-.046-1.0661-.132-.1118-.042-.2076-.118-.2736-.218-.0789-.104-.1483-.215-.2076-.331-.1208-.301-.1879-.621-.1981-.946-.0378-.397-.0567-.804-.0567-1.22-.0011-.391.0178-.783.0567-1.173.0139-.269.0582-.535.132-.794.0458-.141.1161-.272.2076-.388.0391-.054.09-.098.1489-.129.0589-.032.1242-.049.1908-.051 1.7738-.17 3.4721-.302 5.076-.378.6888-.047 1.3964-.075 2.1135-.094.717-.019 1.4247 0 2.104 0 .6793 0 1.3114 0 1.887.047.5084.01 1.0156.051 1.519.123z"/><path d="m107.644 153.72c.108.074.201.169.272.28.071.11.12.234.143.363.099.349.162.707.189 1.069 0 .387 0 .756 0 1.116 0 .359 0 .614 0 .766-.014.117-.052.23-.11.332-.058.102-.136.192-.23.264-.088.059-.188.101-.292.123-.603.096-1.211.153-1.821.17-.727 0-1.5 0-2.312 0 0 .444 0 .946 0 1.409 0 .464 0 .993 0 1.513.708 0 1.34 0 1.887.076.342-.009.683.052 1 .18.189.161.31.387.34.633.087.347.138.702.151 1.06 0 .387 0 .756 0 1.116 0 .359 0 .614 0 .766-.017.134-.055.265-.113.388-.044.081-.098.158-.161.227-.058.057-.129.099-.207.123-.46.096-.927.149-1.396.16-.557 0-1.152 0-1.774 0-.047.473-.085.946-.123 1.476-.038.529-.066.946-.094 1.39-.029.445-.076.946-.104 1.428-.003.071-.022.141-.056.204-.035.062-.083.116-.142.156-.139.098-.292.174-.453.227-.306.097-.623.151-.944.16-.434 0-.896.057-1.3865.067-.4819.005-.9637-.014-1.4436-.057-.3707-.023-.7361-.1-1.085-.227-.3586-.142-.5567-.322-.6133-.53-.1112-.381-.1746-.775-.1887-1.173-.0566-.633-.1038-1.409-.151-2.307-.0471-.899-.0754-1.892-.1037-2.98-.0284-1.087 0-2.137 0-3.168 0-1.031 0-1.986 0-2.837 0-.852.0566-1.589.1132-2.1.0181-.232.0496-.462.0943-.69.0427-.216.126-.421.2453-.606.1165-.18.2712-.331.4529-.444.2161-.132.4643-.2.7171-.199l1.453-.085 1.887-.066c.689 0 1.387 0 2.085 0h1.953c.595 0 1.104.047 1.519.085.273.011.542.059.802.142z"/><path d="m119.419 153.483c.474-.005.946.049 1.406.161.371.091.727.234 1.057.426.286.159.55.356.783.586.203.197.381.42.528.662.343.555.547 1.184.595 1.835.085 1.031.141 2.081.188 3.131.047 1.049 0 1.891 0 2.941-.015.986-.081 1.971-.198 2.951-.045.418-.157.827-.33 1.21-.28.627-.719 1.168-1.274 1.57-.249.174-.515.322-.792.445-.654.274-1.35.437-2.057.482l-4.114.067h-.745c-.349-.015-.696-.06-1.038-.133-.4-.08-.792-.197-1.17-.35-.404-.156-.779-.377-1.113-.652-.357-.293-.658-.649-.887-1.05-.276-.479-.45-1.011-.51-1.561-.113-.979-.176-1.964-.188-2.951 0-1.049 0-2.024 0-2.941 0-.917.103-2.1.169-3.131.048-.65.252-1.28.595-1.834.147-.241.321-.463.519-.663.229-.234.493-.432.783-.586.333-.192.692-.335 1.066-.426.46-.112.932-.166 1.406-.16zm-2.604 11.416c.406 0 .745 0 1.019 0 .235-.005.464-.078.661-.208.18-.136.31-.33.368-.549.09-.345.135-.701.132-1.059 0-.321 0-.671 0-1.031 0-.359 0-.719 0-1.04 0-.322 0-.634 0-.899-.01-.191-.036-.38-.076-.567-.048-.229-.137-.447-.264-.643-.104-.15-.253-.262-.425-.322-.22-.076-.448-.126-.679-.151-.241-.03-.484-.046-.726-.047-.258-.018-.517.017-.76.103-.243.086-.467.222-.656.398-.357.496-.534 1.1-.5 1.712 0 .35-.056.737-.075 1.172-.019.436 0 .833 0 1.23.002.349.037.698.104 1.04.024.229.132.441.301.596.209.119.441.193.68.218.251.012.55.028.896.047z"/><path d="m135.336 153.483c.474-.005.946.049 1.406.161.371.091.726.234 1.057.426.286.159.549.356.783.586.201.2.378.422.528.662.343.555.547 1.184.594 1.835.085 1.031.142 2.081.189 3.131.047 1.049 0 1.891 0 2.941-.015.986-.081 1.971-.198 2.951-.045.418-.157.827-.33 1.21-.143.341-.334.659-.566.946-.209.252-.45.475-.717.662-.245.175-.508.324-.783.445-.655.274-1.35.437-2.057.482l-4.114.066h-.745c-.349-.015-.697-.059-1.038-.132-.401-.079-.792-.196-1.17-.35-.405-.154-.781-.375-1.113-.653-.358-.292-.658-.648-.887-1.049-.276-.48-.45-1.011-.51-1.561-.113-.98-.176-1.965-.189-2.951 0-1.05 0-2.024 0-2.941 0-.918.104-2.1.17-3.131.048-.942.445-1.833 1.114-2.497.228-.232.488-.43.773-.586.338-.19.7-.333 1.076-.426.46-.112.932-.166 1.406-.16zm-2.604 11.416c.406 0 .745 0 1.019 0 .235-.005.464-.078.66-.208.181-.136.31-.33.368-.549.091-.345.136-.702.132-1.059 0-.321 0-.671 0-1.031 0-.359 0-.719 0-1.04 0-.322 0-.634 0-.899-.01-.191-.035-.38-.075-.567-.052-.228-.141-.445-.264-.643-.106-.152-.258-.265-.434-.322-.217-.076-.442-.126-.67-.151-.244-.031-.49-.046-.736-.047-.256-.017-.513.019-.754.105-.242.086-.464.221-.652.396-.358.496-.534 1.1-.5 1.712 0 .35-.057.737-.075 1.172-.019.436 0 .833 0 1.23.002.349.037.698.103 1.04.025.229.133.441.302.596.207.118.434.192.67.218.264 0 .557.028.906.047z"/><path d="m155.678 156.661c.447.611.797 1.287 1.038 2.005.244.727.38 1.485.406 2.251.066.987-.079 1.977-.425 2.904-.341.877-.833 1.686-1.453 2.393-.643.736-1.39 1.373-2.217 1.891-.858.532-1.768.973-2.718 1.315-.964.345-1.959.598-2.972.757-.979.156-1.971.216-2.962.179-.264 0-.529 0-.783-.075-.247-.033-.49-.087-.727-.161-.205-.055-.4-.145-.575-.265-.151-.094-.272-.228-.349-.388-.099-.306-.16-.624-.18-.946-.047-.482-.094-1.078-.132-1.787-.038-.71-.085-1.495-.113-2.355-.028-.861-.066-1.74-.085-2.629-.019-.89 0-1.769-.047-2.63v-2.364c0-.71 0-1.305.057-1.797.011-.318.045-.634.103-.946.053-.161.147-.305.274-.416.135-.108.284-.198.443-.265.164-.066.335-.114.51-.142l.519-.085c.863-.115 1.733-.182 2.604-.199.898-.018 1.797.029 2.689.142.894.122 1.775.325 2.632.606.857.279 1.678.66 2.444 1.134.38.252.74.533 1.075.842.347.313.663.658.944 1.031zm-8.02 8.295c.822-.071 1.62-.316 2.34-.719.592-.337 1.099-.807 1.481-1.371.323-.501.506-1.079.529-1.675.026-.588-.139-1.169-.472-1.655-.401-.57-.949-1.021-1.585-1.305-.877-.395-1.823-.614-2.783-.643.103 1.154.198 2.355.302 3.594.103 1.239.122 2.497.15 3.774z"/><path d="m53.3079 86.0671h62.2711v45.5019c0 2.23-.884 4.369-2.457 5.946-1.573 1.576-3.706 2.462-5.931 2.462h-45.4954c-2.2246 0-4.358-.886-5.931-2.462-1.573-1.577-2.4567-3.716-2.4567-5.946z"/><path d="m61.6956 49.1813h45.4954c2.225 0 4.358.8858 5.931 2.4626 1.573 1.5769 2.457 3.7155 2.457 5.9455v24.6946h-62.2711v-24.6946c0-2.23.8837-4.3686 2.4567-5.9455 1.573-1.5768 3.7064-2.4626 5.931-2.4626z"/></g><path d="m61.4786 67.7283v8.323" stroke="#fff" stroke-linecap="round" stroke-miterlimit="10" stroke-width="2"/><path d="m61.4786 92.5837v8.3233" stroke="#fff" stroke-linecap="round" stroke-miterlimit="10" stroke-width="2"/></svg>