<svg fill="none" height="32" viewBox="0 0 17 32" width="17" xmlns="http://www.w3.org/2000/svg"><g fill="#fe6a6e"><path d="m11.2379 4.89178c.4748-.22688.8468-.62497 1.0416-1.11475.1948-.48979.1981-1.03521.0093-1.52733-.1889-.49212-.556-.89471-1.028-1.12737-.472-.232652-1.0142-.278239-1.51833-.127654-.13212-.291464-.34382-.539504-.61063-.715459-.2668-.175955-.57783-.27264412-.89714-.27889362-.31931-.00624951-.63386.07819492-.90732.24357662-.27345.165381-.49465.404949-.63802.69102-.17585-.046997-.3571-.070583-.53909-.070148-.48518.008525-.95227.186108-1.32106.502248-.3688.31615-.61629.75113-.7 1.23028-.0837.47914.00162.97255.2413 1.3955.23968.42296.61878.74908 1.0722.92236v1.10418h5.78229c.0026-.37672.0077-.75344.0129-1.12756z"/><path d="m0 17h17v12.477c0 .6115-.2413 1.1979-.6707 1.6303-.4294.4324-1.0118.6753-1.6191.6753h-12.42035c-.60731 0-1.18974-.2429-1.619169-.6753-.42943-.4324-.670681-1.0188-.670681-1.6303z"/><path d="m2.28985 6.65218h12.42035c.6073 0 1.1897.25713 1.6191.71483.4294.45771.6707 1.07849.6707 1.72577v7.16812h-17v-7.16812c0-.64728.241251-1.26806.670681-1.72577.429429-.4577 1.011859-.71483 1.619169-.71483z"/></g><path d="m2.21741 11.8261v2.2174" stroke="#fff" stroke-linecap="round" stroke-miterlimit="10" stroke-width="2"/><path d="m2.21741 19.2174v1.4783" stroke="#fff" stroke-linecap="round" stroke-miterlimit="10" stroke-width="2"/></svg>