<svg width="80" height="116" viewBox="0 0 80 116" fill="none" xmlns="http://www.w3.org/2000/svg">
<path d="M0 47.125H79.6909V105.258C79.6909 108.107 78.56 110.839 76.547 112.854C74.5339 114.868 71.8037 116 68.9568 116H10.7341C7.88726 116 5.15699 114.868 3.14395 112.854C1.13091 110.839 0 108.107 0 105.258V47.125Z" fill="#FE6A6E"/>
<path d="M10.7341 0H68.9568C71.8037 0 74.5339 1.13175 76.547 3.14629C78.56 5.16082 79.6909 7.89311 79.6909 10.7421V42.2917H0V10.7421C0 7.89311 1.13091 5.16082 3.14395 3.14629C5.15699 1.13175 7.88726 0 10.7341 0Z" fill="#FE6A6E"/>
<path d="M13.5654 25.5349V36.1683" stroke="white" stroke-width="5" stroke-miterlimit="10" stroke-linecap="round"/>
<path d="M13.5654 57.29V67.9234" stroke="white" stroke-width="5" stroke-miterlimit="10" stroke-linecap="round"/>
</svg>
