<svg width="86" height="100" viewBox="0 0 86 100" fill="none" xmlns="http://www.w3.org/2000/svg">
<path d="M48.4777 20.2233C49.3671 19.7994 50.0638 19.0556 50.4287 18.1404C50.7935 17.2253 50.7997 16.2062 50.446 15.2867C50.0923 14.3672 49.4047 13.615 48.5206 13.1803C47.6364 12.7456 46.6209 12.6604 45.6767 12.9418C45.4292 12.3972 45.0327 11.9337 44.5329 11.605C44.0332 11.2762 43.4506 11.0955 42.8525 11.0839C42.2544 11.0722 41.6652 11.23 41.153 11.539C40.6408 11.848 40.2265 12.2956 39.958 12.8301C39.6286 12.7423 39.2891 12.6982 38.9482 12.699C38.0394 12.715 37.1646 13.0468 36.4738 13.6375C35.783 14.2282 35.3194 15.0409 35.1627 15.9362C35.0059 16.8314 35.1657 17.7533 35.6146 18.5436C36.0636 19.3339 36.7736 19.9432 37.6229 20.267V22.3301H48.4535C48.4583 21.6262 48.468 20.9223 48.4777 20.2233Z" fill="url(#paint0_linear_436_2519)"/>
<path d="M9.2529 80.8981C9.5199 81.0632 9.81603 81.2331 10.1413 81.3836C10.4613 81.5571 10.7695 81.7517 11.0637 81.9661C11.3524 82.1733 11.6106 82.42 11.8307 82.6991C12.0509 82.9826 12.1976 83.3161 12.2579 83.67C12.3173 84.0077 12.2906 84.355 12.1802 84.6797C12.0757 85.0022 11.911 85.302 11.6948 85.5632C11.4703 85.8296 11.1967 86.0505 10.8889 86.2137C10.5742 86.3799 10.229 86.4806 9.87429 86.5098C9.33358 86.5555 8.78938 86.5376 8.25286 86.4564C7.74082 86.3717 7.23948 86.2318 6.75765 86.0389C6.56368 85.9676 6.37542 85.8816 6.19452 85.7816C6.0536 85.7115 5.9394 85.5973 5.86926 85.4564C5.83168 85.3288 5.82338 85.1944 5.84499 85.0632C5.86156 84.8842 5.90071 84.708 5.9615 84.5389C6.02467 84.3679 6.10778 84.205 6.20908 84.0535C6.29525 83.9171 6.41806 83.8078 6.56347 83.7379C6.7426 83.6562 6.94188 83.6292 7.13631 83.6603L7.36933 83.7282L7.78682 83.8447L8.25286 83.9807C8.36863 84.0175 8.48713 84.045 8.60724 84.0632C8.82352 84.1231 9.04864 84.1444 9.27232 84.1263C9.40339 84.102 9.47621 84.0535 9.48107 83.9855C9.48592 83.9175 9.44223 83.8302 9.33057 83.7331C9.20277 83.6171 9.06087 83.5176 8.90823 83.437C8.68492 83.3253 8.45675 83.2088 8.21402 83.0972C7.97129 82.9855 7.72856 82.8641 7.50525 82.7331C7.276 82.593 7.06133 82.4304 6.86445 82.2476C6.66107 82.0614 6.49615 81.8371 6.37899 81.5875C6.15716 81.221 6.04904 80.7969 6.0683 80.369C6.08965 79.9766 6.21351 79.5967 6.42754 79.2671C6.64685 78.9222 6.93835 78.6291 7.28194 78.4078C7.64273 78.1696 8.04686 78.0047 8.47132 77.9224C8.73049 77.8716 8.99368 77.844 9.25776 77.8399C9.53535 77.8319 9.81312 77.8481 10.0879 77.8884C10.3663 77.9278 10.6408 77.9912 10.9083 78.0777C11.1722 78.1574 11.425 78.27 11.6608 78.4127C11.7785 78.4696 11.8828 78.551 11.9665 78.6515C12.0502 78.7519 12.1115 78.8691 12.1462 78.9952C12.1998 79.2186 12.1998 79.4515 12.1462 79.6748C12.0996 79.8858 12.0295 80.091 11.9375 80.2865C11.8755 80.431 11.7725 80.5541 11.6414 80.6408C11.5152 80.7191 11.3667 80.7533 11.219 80.7379C11.0164 80.7164 10.8183 80.664 10.6316 80.5826C10.3505 80.4718 10.0571 80.3952 9.75778 80.3544C9.55903 80.3153 9.35456 80.3153 9.15581 80.3544C9.01503 80.3933 8.95192 80.4612 8.95677 80.5583C8.96163 80.6554 9.0393 80.7671 9.2529 80.8981Z" fill="#FE6A6E"/>
<path d="M23.3021 78.0582C23.39 78.0846 23.4668 78.1392 23.5206 78.2136C23.57 78.2835 23.6047 78.3628 23.6225 78.4466C23.6914 78.7484 23.7368 79.0552 23.7585 79.3641C23.7924 79.733 23.8119 80.131 23.8264 80.5631C23.841 80.9951 23.8264 81.4466 23.8264 81.9126C23.8264 82.3786 23.7973 82.8398 23.7779 83.2912C23.7585 83.7427 23.7245 84.1699 23.6905 84.5776C23.6565 84.9854 23.6177 85.3398 23.5837 85.6408C23.5697 85.7127 23.5435 85.7817 23.506 85.8446C23.4686 85.9048 23.4169 85.9548 23.3555 85.9903C23.2788 86.0329 23.1949 86.0609 23.1079 86.0728L22.6225 86.1165C22.3832 86.1313 22.1433 86.1313 21.904 86.1165C21.6716 86.1138 21.4403 86.0845 21.2147 86.0291C21.1283 86.0187 21.0456 85.9882 20.9731 85.9402C20.9007 85.8922 20.8404 85.8279 20.7972 85.7524C20.7548 85.617 20.7304 85.4767 20.7243 85.3349C20.7243 85.1213 20.6952 84.8495 20.6855 84.5534C20.6758 84.2573 20.6855 83.898 20.6855 83.5243C20.6855 83.1505 20.6855 82.7718 20.6855 82.3883C20.5496 82.5874 20.4185 82.767 20.2923 82.9369C20.1661 83.1068 20.0544 83.2573 19.9476 83.3883C19.8631 83.5017 19.7724 83.6103 19.6758 83.7136C19.6277 83.7758 19.5684 83.8285 19.501 83.8689C19.3512 83.9582 19.1869 84.0207 19.0155 84.0534C18.8465 84.0901 18.6739 84.108 18.501 84.1068C18.3378 84.1092 18.1749 84.0929 18.0155 84.0582C17.8935 84.0359 17.7756 83.995 17.666 83.9369C17.5924 83.8783 17.5242 83.8133 17.4621 83.7427C17.365 83.6408 17.2533 83.5097 17.1174 83.3544L16.6805 82.8155C16.5251 82.6213 16.3601 82.4126 16.195 82.1942C16.195 82.5874 16.2339 82.9757 16.2484 83.3641C16.263 83.7524 16.2484 84.1068 16.2484 84.432C16.2484 84.7573 16.2484 85.0291 16.2484 85.2524C16.2498 85.397 16.2401 85.5414 16.2193 85.6844C16.169 85.8161 16.0723 85.9249 15.9475 85.9903C15.8014 86.0574 15.6458 86.1016 15.4863 86.1213C15.2824 86.1553 15.0736 86.1747 14.8552 86.1893C14.6367 86.2039 14.4377 86.1893 14.2484 86.1893C14.1075 86.1884 13.9674 86.1705 13.8309 86.1359C13.7586 86.1149 13.6911 86.0803 13.6318 86.034C13.5777 85.984 13.5418 85.9174 13.5299 85.8446C13.3988 84.7961 13.292 83.801 13.2143 82.8495C13.1803 82.4466 13.1464 82.034 13.1172 81.6068C13.0881 81.1796 13.0638 80.7767 13.0493 80.3835C13.0347 79.9903 13.0201 79.6213 13.0201 79.2815C13.0172 78.9913 13.0318 78.7011 13.0638 78.4126C13.0716 78.3504 13.0932 78.2907 13.1269 78.2378C13.1631 78.1801 13.2072 78.1278 13.258 78.0825C13.3268 78.0208 13.4078 77.9745 13.4959 77.9466C13.6144 77.9003 13.7384 77.8693 13.8648 77.8543C14.0202 77.8301 14.195 77.8107 14.3746 77.8009C14.5542 77.7912 14.7484 77.8009 14.9426 77.8009C15.1367 77.8009 15.3212 77.8009 15.4911 77.8009C15.661 77.8009 15.8067 77.8349 15.9377 77.8592C16.0341 77.8753 16.1264 77.9099 16.2096 77.9611C16.3966 78.1502 16.5671 78.3548 16.7193 78.5728C16.9135 78.8349 17.1077 79.1262 17.3019 79.4369C17.4961 79.7475 17.7 80.0679 17.899 80.4077C18.098 80.7475 18.2776 81.0243 18.4427 81.2815C18.7971 80.8252 19.1078 80.4126 19.3748 80.0485C19.6418 79.6844 19.8602 79.364 20.0933 79.0776C20.2726 78.8417 20.4655 78.6164 20.671 78.4029C20.8195 78.2395 20.9952 78.1032 21.1904 78C21.3466 77.9423 21.5099 77.9064 21.6758 77.8932C21.8876 77.8785 22.1001 77.8785 22.3118 77.8932C22.5116 77.8983 22.7109 77.9145 22.9089 77.9417C23.0448 77.9618 23.1772 78.001 23.3021 78.0582Z" fill="#FE6A6E"/>
<path d="M29.8558 77.7961C30.0032 77.9301 30.1178 78.0962 30.1908 78.2815C30.3267 78.5582 30.482 78.9029 30.6762 79.3155C30.8704 79.7281 31.0209 80.1941 31.2054 80.7135C31.3899 81.233 31.5646 81.7621 31.7345 82.3009C31.9044 82.8398 32.0598 83.3737 32.22 83.8932C32.3802 84.4126 32.487 84.8883 32.5792 85.3058C32.5963 85.3809 32.5963 85.4588 32.5792 85.5339C32.5602 85.5982 32.5307 85.6589 32.4918 85.7135C32.4414 85.785 32.3702 85.8392 32.2879 85.8689C32.1909 85.9077 32.0355 85.9708 31.8025 86.0436C31.5704 86.1227 31.3337 86.1875 31.0937 86.2378C30.8613 86.2911 30.6234 86.3172 30.385 86.3155C30.2071 86.3252 30.0325 86.2641 29.8995 86.1456C29.8215 86.0466 29.7577 85.9371 29.7102 85.8203C29.6325 85.6504 29.5451 85.4368 29.4432 85.1844L28.7684 85.0922C28.5354 85.0631 28.3072 85.0291 28.0839 84.9902C27.8606 84.9563 27.6518 84.9223 27.4528 84.8834L26.9382 84.7864C26.8605 84.9805 26.7877 85.1553 26.7295 85.3106C26.6712 85.466 26.613 85.6019 26.5741 85.7135C26.5353 85.8252 26.477 85.9611 26.443 86.063C26.4203 86.1319 26.3738 86.1904 26.312 86.2281C26.2528 86.2626 26.1862 86.2826 26.1178 86.2864C26.0102 86.3052 25.9001 86.3052 25.7925 86.2864C25.638 86.2643 25.4854 86.2302 25.3362 86.1844C25.171 86.14 25.0088 86.0848 24.8507 86.0194C24.7296 85.9676 24.6192 85.8935 24.5255 85.8009C24.4451 85.7122 24.4032 85.5952 24.409 85.4757C24.4274 85.2935 24.4615 85.1132 24.5109 84.9368C24.574 84.6844 24.6517 84.3834 24.7537 84.0388C24.8556 83.6941 24.9721 83.3203 25.1032 82.9126C25.2343 82.5048 25.375 82.0922 25.5158 81.6747C25.6566 81.2572 25.7974 80.8495 25.9382 80.4466C26.079 80.0436 26.21 79.6844 26.3314 79.3592C26.4528 79.0339 26.5596 78.7524 26.6566 78.5194C26.7537 78.2864 26.8168 78.1359 26.8605 78.0339C26.9334 77.9388 27.0332 77.8677 27.147 77.83C27.3036 77.768 27.4663 77.7225 27.6324 77.6941C27.8266 77.665 28.0305 77.6359 28.2489 77.6213C28.4639 77.6069 28.6796 77.6069 28.8946 77.6213C29.0833 77.6327 29.2712 77.6538 29.4577 77.6844C29.5947 77.7042 29.7285 77.7417 29.8558 77.7961ZM27.5645 83.0388L28.1227 83.1213L28.7295 83.2184C28.6227 82.9029 28.5208 82.5922 28.4237 82.2815C28.3266 81.9708 28.2295 81.665 28.1373 81.364C28.0499 81.6359 27.9577 81.9126 27.8606 82.1941C27.7635 82.4757 27.6713 82.7572 27.5645 83.0388Z" fill="#FE6A6E"/>
<path d="M36.8561 77.1845C37.4332 77.1486 38.0112 77.238 38.5504 77.4466C39.0354 77.6315 39.4744 77.9198 39.8368 78.2913C40.178 78.64 40.4325 79.064 40.5796 79.5292C40.7272 80.001 40.7473 80.5034 40.6378 80.9855C40.5855 81.2259 40.5039 81.459 40.3951 81.6796C40.2828 81.9073 40.1512 82.1249 40.0019 82.3301C39.8497 82.5331 39.6773 82.7202 39.4873 82.8884C39.3009 83.0541 39.0994 83.202 38.8853 83.3301C39.0115 83.4078 39.1281 83.4952 39.2494 83.5874L39.5892 83.869C39.8987 84.1305 40.1714 84.4325 40.4 84.767C40.4203 84.812 40.435 84.8592 40.4436 84.9078C40.4566 84.9571 40.4566 85.009 40.4436 85.0583C40.4189 85.1248 40.379 85.1846 40.3271 85.233L40.1766 85.3787L39.9533 85.5777C39.8665 85.6536 39.7757 85.7249 39.6815 85.7913L39.3951 86C39.2925 86.0774 39.1855 86.1487 39.0747 86.2136C39.0014 86.2591 38.918 86.2858 38.8319 86.2913C38.7448 86.2875 38.6606 86.2589 38.5892 86.2088C38.4758 86.1347 38.3672 86.0537 38.2639 85.966L37.827 85.6214C37.662 85.4903 37.5018 85.3593 37.3416 85.233C37.1814 85.1068 37.0843 85.0194 36.9532 84.9175L36.5891 84.6165C36.5891 84.9369 36.5891 85.2427 36.5891 85.5243C36.5891 85.8058 36.5891 86.0534 36.5503 86.2767C36.5379 86.3581 36.5168 86.4378 36.4872 86.5146C36.4529 86.5806 36.4068 86.6398 36.3512 86.6893C36.2835 86.7495 36.1986 86.7869 36.1085 86.7961C35.948 86.8274 35.786 86.85 35.6231 86.8641C35.3789 86.8788 35.1341 86.8788 34.89 86.8641C34.6521 86.8549 34.416 86.8191 34.1861 86.7573C34.0937 86.7391 34.0063 86.701 33.93 86.6457C33.8537 86.5904 33.7904 86.5191 33.7443 86.4369C33.6892 86.2798 33.6517 86.1169 33.6327 85.9515C33.5938 85.6942 33.555 85.3787 33.521 85.0049C33.487 84.6311 33.4531 84.2185 33.4239 83.7622C33.3948 83.3059 33.3657 82.8447 33.3414 82.369C33.3171 81.8932 33.2929 81.4272 33.2783 80.9709C33.2637 80.5146 33.2443 80.0971 33.2395 79.7233C33.2346 79.3495 33.2395 79.0292 33.2395 78.7525C33.2338 78.5802 33.2452 78.4079 33.2734 78.2379C33.3097 78.1373 33.3664 78.0453 33.4399 77.9676C33.5134 77.8899 33.6022 77.8282 33.7006 77.7864C33.9809 77.6426 34.2776 77.5334 34.5842 77.4612C34.9564 77.369 35.3343 77.3009 35.7153 77.2573C36.0891 77.2379 36.4823 77.2088 36.8561 77.1845ZM36.4775 81.7622C36.6768 81.7428 36.8727 81.6971 37.06 81.6262C37.2699 81.5564 37.4656 81.4496 37.6377 81.3107C37.8018 81.1823 37.9318 81.0157 38.0164 80.8253C38.0604 80.7191 38.0831 80.6053 38.0831 80.4903C38.0831 80.3754 38.0604 80.2615 38.0164 80.1554C37.9585 80.0136 37.8563 79.8944 37.7251 79.8156C37.5754 79.7298 37.4106 79.6738 37.2396 79.6505C37.0672 79.6285 36.8926 79.6285 36.7202 79.6505C36.5549 79.662 36.3917 79.6947 36.2347 79.7476C36.2736 80.0389 36.3076 80.3593 36.3464 80.7185C36.3852 81.0777 36.4338 81.3981 36.4775 81.7719V81.7622Z" fill="#FE6A6E"/>
<path d="M48.3807 77.568C48.446 77.5838 48.5083 77.61 48.5652 77.6457C48.6212 77.685 48.6677 77.7364 48.7011 77.7962C48.7437 77.8729 48.7717 77.9568 48.7836 78.0437C48.7836 78.1554 48.7836 78.3253 48.7836 78.5583C48.7979 78.8008 48.7979 79.044 48.7836 79.2865C48.7626 79.524 48.722 79.7595 48.6623 79.9903C48.6478 80.0749 48.6168 80.1557 48.5709 80.2282C48.5251 80.3006 48.4654 80.3633 48.3953 80.4127C48.2481 80.4636 48.0945 80.493 47.9389 80.5001C47.7011 80.5001 47.4098 80.5389 47.0651 80.5535C47.0651 80.835 47.0651 81.1311 47.0651 81.4467L47.036 82.4175C47.036 82.7412 47.0214 83.0648 46.9923 83.3884C46.9923 83.7136 46.9535 84.0195 46.934 84.3156C46.8904 85.0098 46.837 85.6991 46.7738 86.3884C46.7715 86.4259 46.7601 86.4622 46.7406 86.4943C46.7212 86.5264 46.6943 86.5534 46.6622 86.5729C46.5877 86.6221 46.5079 86.6628 46.4243 86.6942C46.2664 86.7406 46.1033 86.7667 45.9389 86.7719C45.7204 86.7719 45.4874 86.801 45.2349 86.8059C44.9887 86.8102 44.7425 86.8021 44.4971 86.7816C44.306 86.7689 44.1179 86.728 43.9388 86.6603C43.8685 86.6404 43.8032 86.6059 43.7472 86.559C43.6911 86.5122 43.6456 86.454 43.6135 86.3884C43.5761 86.252 43.5534 86.1121 43.5456 85.9709C43.5456 85.7476 43.5067 85.4855 43.4873 85.1457C43.4679 84.8059 43.4582 84.4612 43.4436 84.0632C43.429 83.6651 43.4436 83.2573 43.4436 82.8399C43.4436 82.4224 43.4436 82.0243 43.4436 81.6263C43.4436 81.2282 43.4436 80.869 43.4436 80.534C43.0358 80.534 42.6863 80.5049 42.395 80.4855C42.2101 80.4845 42.026 80.4617 41.8465 80.4175C41.7889 80.3961 41.7397 80.357 41.7057 80.3059C41.6651 80.2525 41.6294 80.1957 41.5989 80.136C41.5367 79.9814 41.5022 79.8171 41.4969 79.6505C41.4775 79.4467 41.4678 79.2379 41.4678 79.0243C41.4672 78.8233 41.4769 78.6224 41.4969 78.4224C41.5041 78.2843 41.5269 78.1475 41.5649 78.0146C41.5884 77.9425 41.6246 77.8751 41.6717 77.8156C41.6918 77.7878 41.718 77.7651 41.7483 77.7491C41.7786 77.7331 41.8122 77.7243 41.8465 77.7234C42.7591 77.636 43.6329 77.568 44.4582 77.5292C44.8126 77.5049 45.1767 77.4903 45.5456 77.4806C45.9146 77.4709 46.2787 77.4806 46.6282 77.4806C46.9777 77.4806 47.303 77.4806 47.5991 77.5049C47.8607 77.51 48.1217 77.5311 48.3807 77.568Z" fill="#FE6A6E"/>
<path d="M55.3859 77.9272C55.4416 77.9653 55.4892 78.0141 55.5258 78.0708C55.5625 78.1275 55.5875 78.1909 55.5995 78.2573C55.6504 78.4364 55.6829 78.6202 55.6966 78.8058C55.6966 79.0048 55.6966 79.1942 55.6966 79.3786C55.6966 79.5631 55.6966 79.6942 55.6966 79.7718C55.6892 79.8319 55.6699 79.8898 55.6399 79.9423C55.6099 79.9948 55.5698 80.0408 55.5218 80.0777C55.4762 80.1082 55.4251 80.1296 55.3713 80.1408C55.0612 80.1901 54.7483 80.2193 54.4344 80.2282C54.0606 80.2282 53.6625 80.2282 53.245 80.2282C53.245 80.4563 53.245 80.7136 53.245 80.9514C53.245 81.1893 53.245 81.4612 53.245 81.7281C53.6091 81.7281 53.9344 81.7282 54.216 81.767C54.392 81.7623 54.5671 81.7937 54.7305 81.8592C54.8274 81.942 54.8897 82.058 54.9053 82.1845C54.9502 82.3625 54.9762 82.5447 54.983 82.7281C54.983 82.9272 54.983 83.1165 54.983 83.301C54.983 83.4854 54.983 83.6165 54.983 83.6942C54.9742 83.7632 54.9546 83.8304 54.9247 83.8932C54.9019 83.9352 54.8742 83.9743 54.8422 84.0097C54.8122 84.039 54.7755 84.0606 54.7354 84.0728C54.4989 84.1221 54.2584 84.1498 54.0169 84.1553C53.7305 84.1553 53.4247 84.1553 53.1043 84.1553C53.08 84.3981 53.0606 84.6408 53.0412 84.9126C53.0217 85.1845 53.0072 85.3981 52.9926 85.6262C52.978 85.8544 52.9538 86.1116 52.9392 86.3592C52.9379 86.3958 52.928 86.4316 52.9103 86.4636C52.8926 86.4957 52.8676 86.5231 52.8373 86.5437C52.7659 86.594 52.6873 86.6333 52.6042 86.6602C52.4471 86.7103 52.2837 86.7381 52.1188 86.7427C51.8955 86.7427 51.6576 86.7718 51.4052 86.7767C51.1572 86.7795 50.9094 86.7698 50.6624 86.7476C50.4717 86.7358 50.2837 86.6966 50.1041 86.6311C49.9197 86.5583 49.8177 86.466 49.7886 86.3592C49.7314 86.1634 49.6987 85.9612 49.6915 85.7573C49.6624 85.432 49.6381 85.034 49.6138 84.5728C49.5896 84.1116 49.575 83.6019 49.5604 83.0437C49.5459 82.4854 49.5604 81.9466 49.5604 81.4175C49.5604 80.8883 49.5604 80.3981 49.5604 79.9612C49.5604 79.5243 49.5896 79.1456 49.6187 78.8835C49.628 78.7645 49.6442 78.6462 49.6672 78.5291C49.6892 78.4185 49.732 78.313 49.7934 78.2184C49.8534 78.1262 49.933 78.0483 50.0265 77.9903C50.1377 77.9229 50.2654 77.8876 50.3954 77.8883L51.143 77.8447L52.1139 77.8107C52.4683 77.8107 52.8276 77.8107 53.1868 77.8107H54.1917C54.4975 77.8107 54.7597 77.8349 54.9733 77.8544C55.1134 77.8602 55.2522 77.8847 55.3859 77.9272Z" fill="#FE6A6E"/>
<path d="M61.4444 77.8059C61.688 77.803 61.931 77.8307 62.1677 77.8884C62.3584 77.9348 62.5415 78.0084 62.7114 78.1068C62.8588 78.1884 62.9943 78.2897 63.1143 78.4078C63.2191 78.509 63.3105 78.6232 63.3862 78.7476C63.5626 79.0323 63.6675 79.3554 63.692 79.6894C63.7357 80.2185 63.7648 80.7573 63.7891 81.2962C63.8134 81.835 63.7891 82.267 63.7891 82.8059C63.7813 83.3121 63.7473 83.8177 63.6872 84.3204C63.6639 84.5353 63.6065 84.745 63.5173 84.9418C63.3732 85.2632 63.1472 85.5411 62.8619 85.7476C62.7335 85.8364 62.597 85.9128 62.4541 85.9758C62.1175 86.1164 61.7599 86.2001 61.3958 86.2233L59.2792 86.2573H58.8957C58.7161 86.2496 58.5375 86.2269 58.3617 86.1894C58.1559 86.1484 57.9544 86.0882 57.7597 86.0097C57.5521 85.9294 57.3587 85.8163 57.1869 85.6748C57.0031 85.5246 56.8485 85.3419 56.7306 85.136C56.5886 84.89 56.4993 84.6173 56.4684 84.335C56.41 83.8321 56.3776 83.3266 56.3713 82.8204C56.3713 82.2816 56.3713 81.7816 56.3713 81.3107C56.3713 80.8398 56.4247 80.233 56.4587 79.7039C56.4833 79.3699 56.5882 79.0469 56.7646 78.7622C56.84 78.6389 56.9297 78.5249 57.0316 78.4224C57.1497 78.302 57.2855 78.2005 57.4345 78.1214C57.6061 78.023 57.7908 77.9494 57.9831 77.9029C58.2198 77.8453 58.4628 77.8176 58.7064 77.8204L61.4444 77.8059ZM60.1045 83.6651C60.3132 83.6651 60.488 83.6651 60.6288 83.6651C60.7499 83.6623 60.8677 83.6253 60.9686 83.5583C61.0615 83.4883 61.1281 83.3891 61.1579 83.2767C61.2046 83.0993 61.2275 82.9165 61.2259 82.733C61.2259 82.568 61.2259 82.3884 61.2259 82.2039C61.2259 82.0195 61.2259 81.835 61.2259 81.6699C61.2259 81.5049 61.2259 81.3447 61.2259 81.2088C61.2208 81.1108 61.2078 81.0134 61.1871 80.9175C61.1626 80.8 61.1165 80.6881 61.0511 80.5874C60.9976 80.5107 60.9211 80.4529 60.8327 80.4224C60.7195 80.3835 60.6022 80.3574 60.4832 80.3447C60.3591 80.3292 60.2343 80.3211 60.1094 80.3204C59.9768 80.3112 59.8438 80.3293 59.7186 80.3736C59.5933 80.4178 59.4785 80.4873 59.3812 80.5777C59.1971 80.8324 59.1063 81.1426 59.1239 81.4563C59.1239 81.636 59.0948 81.835 59.085 82.0583C59.0753 82.2816 59.085 82.4855 59.085 82.6894C59.0862 82.8686 59.1041 83.0474 59.1384 83.2233C59.1513 83.3408 59.2065 83.4495 59.2938 83.5292C59.4013 83.5902 59.5203 83.6282 59.6433 83.6408C59.7728 83.6473 59.9265 83.6554 60.1045 83.6651Z" fill="#FE6A6E"/>
<path d="M69.6341 77.8059C69.8777 77.803 70.1207 77.8307 70.3574 77.8884C70.5481 77.9348 70.7312 78.0084 70.9011 78.1068C71.0485 78.1884 71.184 78.2897 71.304 78.4078C71.4074 78.5103 71.4986 78.6243 71.5759 78.7476C71.7522 79.0323 71.8572 79.3554 71.8817 79.6894C71.9254 80.2185 71.9545 80.7573 71.9788 81.2962C72.0031 81.835 71.9788 82.267 71.9788 82.8059C71.971 83.3121 71.937 83.8177 71.8769 84.3204C71.8536 84.5353 71.7963 84.745 71.707 84.9418C71.6333 85.1166 71.5353 85.28 71.4157 85.4272C71.3085 85.5566 71.1844 85.6709 71.0467 85.767C70.9207 85.8568 70.7856 85.9332 70.6438 85.9952C70.3072 86.1359 69.9496 86.2195 69.5855 86.2428L67.4689 86.2767H67.0854C66.9058 86.2691 66.7272 86.2463 66.5514 86.2088C66.3454 86.1684 66.1438 86.1083 65.9494 86.0292C65.7413 85.9499 65.5477 85.8368 65.3766 85.6942C65.1928 85.544 65.0382 85.3614 64.9203 85.1554C64.7783 84.9094 64.689 84.6367 64.6581 84.3544C64.5997 83.8516 64.5673 83.346 64.561 82.8398C64.561 82.301 64.561 81.801 64.561 81.3301C64.561 80.8593 64.6144 80.2525 64.6484 79.7233C64.6729 79.2397 64.8772 78.7826 65.2213 78.4418C65.3386 78.3226 65.4727 78.2212 65.6193 78.1408C65.793 78.0432 65.9792 77.9697 66.1727 77.9224C66.4095 77.8647 66.6525 77.837 66.8961 77.8398L69.6341 77.8059ZM68.2942 83.6651C68.5029 83.6651 68.6777 83.6651 68.8185 83.6651C68.9396 83.6623 69.0574 83.6253 69.1583 83.5583C69.2512 83.4883 69.3178 83.3891 69.3476 83.2767C69.3943 83.0993 69.4172 82.9165 69.4156 82.733C69.4156 82.568 69.4156 82.3884 69.4156 82.2039C69.4156 82.0195 69.4156 81.835 69.4156 81.6699C69.4156 81.5049 69.4156 81.3447 69.4156 81.2088C69.4104 81.1108 69.3975 81.0134 69.3768 80.9175C69.3502 80.8007 69.3043 80.6891 69.2408 80.5874C69.1866 80.5093 69.1081 80.4513 69.0175 80.4224C68.906 80.3835 68.7903 80.3574 68.6729 80.3447C68.5472 80.3291 68.4208 80.321 68.2942 80.3204C68.1625 80.3119 68.0304 80.3303 67.906 80.3745C67.7817 80.4188 67.6676 80.4879 67.5709 80.5777C67.3868 80.8324 67.296 81.1426 67.3136 81.4564C67.3136 81.636 67.2844 81.835 67.2747 82.0583C67.265 82.2816 67.2747 82.4855 67.2747 82.6894C67.2759 82.8686 67.2938 83.0474 67.3281 83.2233C67.341 83.3408 67.3962 83.4495 67.4835 83.5292C67.5896 83.5894 67.7069 83.6274 67.8282 83.6408C67.9641 83.6408 68.1146 83.6554 68.2942 83.6651Z" fill="#FE6A6E"/>
<path d="M80.1005 79.4369C80.3305 79.7504 80.5106 80.0975 80.6345 80.466C80.76 80.839 80.8303 81.2282 80.8433 81.6214C80.8775 82.128 80.803 82.6362 80.6248 83.1117C80.4494 83.5617 80.1964 83.9774 79.8772 84.3398C79.5466 84.7176 79.1622 85.0447 78.7364 85.3107C78.2952 85.5838 77.8266 85.81 77.3383 85.9855C76.8419 86.1626 76.3299 86.2926 75.8091 86.3738C75.3052 86.4543 74.7947 86.4852 74.2848 86.466C74.1488 86.466 74.0129 86.466 73.8818 86.4272C73.7551 86.4105 73.63 86.3829 73.508 86.3447C73.4024 86.3164 73.3022 86.2704 73.2119 86.2088C73.1345 86.1606 73.0723 86.0916 73.0323 86.0097C72.9814 85.8524 72.9504 85.6893 72.94 85.5243C72.9158 85.2767 72.8915 84.9709 72.8721 84.6068C72.8526 84.2427 72.8284 83.8398 72.8138 83.3981C72.7992 82.9563 72.7798 82.5049 72.7701 82.0486C72.7604 81.5923 72.7701 81.1408 72.7458 80.6991V79.4855C72.7458 79.1214 72.7458 78.8156 72.775 78.5631C72.7807 78.4002 72.7985 78.238 72.8284 78.0777C72.8554 77.9952 72.904 77.9214 72.9692 77.8641C73.0386 77.8086 73.1154 77.7628 73.1973 77.7282C73.2818 77.6944 73.3697 77.6699 73.4595 77.6554L73.7265 77.6117C74.1708 77.5525 74.6182 77.5185 75.0663 77.5097C75.5287 77.5001 75.9911 77.5244 76.4499 77.5826C76.9098 77.6451 77.3631 77.7491 77.8043 77.8932C78.2452 78.0364 78.6673 78.232 79.0617 78.4758C79.2574 78.6048 79.4424 78.7493 79.6151 78.9078C79.7935 79.0682 79.9561 79.2454 80.1005 79.4369ZM75.9741 83.6942C76.397 83.6578 76.8074 83.532 77.1781 83.3253C77.4827 83.1521 77.7435 82.9113 77.9403 82.6214C78.1063 82.3646 78.2002 82.0678 78.2121 81.7622C78.2259 81.4601 78.1406 81.1618 77.9694 80.9126C77.7629 80.6199 77.4811 80.3884 77.1538 80.2427C76.7027 80.0399 76.2161 79.9277 75.7217 79.9126C75.7751 80.5049 75.8237 81.1214 75.8771 81.7573C75.9305 82.3932 75.9402 83.0389 75.9547 83.6942H75.9741Z" fill="#FE6A6E"/>
<path d="M27.4285 43.2039H59.4686V66.5582C59.4686 67.7028 59.014 68.8004 58.2046 69.6098C57.3953 70.4191 56.2975 70.8738 55.1529 70.8738H31.7442C30.5996 70.8738 29.5019 70.4191 28.6925 69.6098C27.8832 68.8004 27.4285 67.7028 27.4285 66.5582V43.2039Z" fill="url(#paint1_linear_436_2519)"/>
<path d="M31.7442 24.2719H55.1529C56.2975 24.2719 57.3953 24.7265 58.2046 25.5358C59.014 26.3452 59.4686 27.4428 59.4686 28.5874V41.2621H27.4285V28.5874C27.4285 27.4428 27.8832 26.3452 28.6925 25.5358C29.5019 24.7265 30.5996 24.2719 31.7442 24.2719Z" fill="url(#paint2_linear_436_2519)"/>
<path d="M31.6326 33.7913V38.0631" stroke="white" stroke-width="4" stroke-miterlimit="10"/>
<path d="M31.6326 45.5776V49.8495" stroke="white" stroke-width="4" stroke-miterlimit="10"/>
<defs>
<linearGradient id="paint0_linear_436_2519" x1="35.0354" y1="16.6942" x2="50.9487" y2="16.6942" gradientUnits="userSpaceOnUse">
<stop stop-color="#FE6A6E"/>
<stop offset="1" stop-color="#FD6844"/>
</linearGradient>
<linearGradient id="paint1_linear_436_2519" x1="24.7439" y1="67.6844" x2="54.4241" y2="49.2756" gradientUnits="userSpaceOnUse">
<stop stop-color="#FE6A6E"/>
<stop offset="1" stop-color="#FD6844"/>
</linearGradient>
<linearGradient id="paint2_linear_436_2519" x1="24.4652" y1="43.0279" x2="57.7006" y2="27.1307" gradientUnits="userSpaceOnUse">
<stop stop-color="#FE6A6E"/>
<stop offset="1" stop-color="#FD6844"/>
</linearGradient>
</defs>
</svg>
