<svg fill="none" height="100" viewBox="0 0 86 100" width="86" xmlns="http://www.w3.org/2000/svg" xmlns:xlink="http://www.w3.org/1999/xlink"><linearGradient id="a"><stop offset="0" stop-color="#fe6a6e"/><stop offset="1" stop-color="#fd6844"/></linearGradient><linearGradient id="b" gradientUnits="userSpaceOnUse" x1="35.0354" x2="50.9487" xlink:href="#a" y1="16.6942" y2="16.6942"/><linearGradient id="c" gradientUnits="userSpaceOnUse" x1="24.7439" x2="54.4241" xlink:href="#a" y1="67.6844" y2="49.2756"/><linearGradient id="d" gradientUnits="userSpaceOnUse" x1="24.4652" x2="57.7006" xlink:href="#a" y1="43.0279" y2="27.1307"/><path d="m48.4777 20.2233c.8894-.4239 1.5861-1.1677 1.951-2.0829.3648-.9151.371-1.9342.0173-2.8537s-1.0413-1.6717-1.9254-2.1064c-.8842-.4347-1.8997-.5199-2.8439-.2385-.2475-.5446-.644-1.0081-1.1438-1.3368-.4997-.3288-1.0823-.5095-1.6804-.5211-.5981-.0117-1.1873.1461-1.6995.4551s-.9265.7566-1.195 1.2911c-.3294-.0878-.6689-.1319-1.0098-.1311-.9088.016-1.7836.3478-2.4744.9385s-1.1544 1.4034-1.3111 2.2987c-.1568.8952.003 1.8171.4519 2.6074.449.7903 1.159 1.3996 2.0083 1.7234v2.0631h10.8306c.0048-.7039.0145-1.4078.0242-2.1068z" fill="url(#b)"/><g fill="#fe6a6e"><path d="m9.2529 80.8981c.267.1651.56313.335.8884.4855.32.1735.6282.3681.9224.5825.2887.2072.5469.4539.767.733.2202.2835.3669.617.4272.9709.0594.3377.0327.685-.0777 1.0097-.1045.3225-.2692.6223-.4854.8835-.2245.2664-.4981.4873-.8059.6505-.3147.1662-.6599.2669-1.01461.2961-.54071.0457-1.08491.0278-1.62143-.0534-.51204-.0847-1.01338-.2246-1.49521-.4175-.19397-.0713-.38223-.1573-.56313-.2573-.14092-.0701-.25512-.1843-.32526-.3252-.03758-.1276-.04588-.262-.02427-.3932.01657-.179.05572-.3552.11651-.5243.06317-.171.14628-.3339.24758-.4854.08617-.1364.20898-.2457.35439-.3156.17913-.0817.37841-.1087.57284-.0776l.23302.0679.41749.1165.46604.136c.11577.0368.23427.0643.35438.0825.21628.0599.4414.0812.66508.0631.13107-.0243.20389-.0728.20875-.1408.00485-.068-.03884-.1553-.1505-.2524-.1278-.116-.2697-.2155-.42234-.2961-.22331-.1117-.45148-.2282-.69421-.3398-.24273-.1117-.48546-.2331-.70877-.3641-.22925-.1401-.44392-.3027-.6408-.4855-.20338-.1862-.3683-.4105-.48546-.6601-.22183-.3665-.32995-.7906-.31069-1.2185.02135-.3924.14521-.7723.35924-1.1019.21931-.3449.51081-.638.8544-.8593.36079-.2382.76492-.4031 1.18938-.4854.25917-.0508.52236-.0784.78644-.0825.27759-.008.55536.0082.83014.0485.2784.0394.5529.1028.8204.1893.2639.0797.5167.1923.7525.335.1177.0569.222.1383.3057.2388.0837.1004.145.2176.1797.3437.0536.2234.0536.4563 0 .6796-.0466.211-.1167.4162-.2087.6117-.062.1445-.165.2676-.2961.3543-.1262.0783-.2747.1125-.4224.0971-.2026-.0215-.4007-.0739-.5874-.1553-.2811-.1108-.5745-.1874-.87382-.2282-.19875-.0391-.40322-.0391-.60197 0-.14078.0389-.20389.1068-.19904.2039.00486.0971.08253.2088.29613.3398z"/><path d="m23.3021 78.0582c.0879.0264.1647.081.2185.1554.0494.0699.0841.1492.1019.233.0689.3018.1143.6086.136.9175.0339.3689.0534.7669.0679 1.199.0146.432 0 .8835 0 1.3495s-.0291.9272-.0485 1.3786c-.0194.4515-.0534.8787-.0874 1.2864-.034.4078-.0728.7622-.1068 1.0632-.014.0719-.0402.1409-.0777.2038-.0374.0602-.0891.1102-.1505.1457-.0767.0426-.1606.0706-.2476.0825l-.4854.0437c-.2393.0148-.4792.0148-.7185 0-.2324-.0027-.4637-.032-.6893-.0874-.0864-.0104-.1691-.0409-.2416-.0889-.0724-.048-.1327-.1123-.1759-.1878-.0424-.1354-.0668-.2757-.0729-.4175 0-.2136-.0291-.4854-.0388-.7815s0-.6554 0-1.0291c0-.3738 0-.7525 0-1.136-.1359.1991-.267.3787-.3932.5486s-.2379.3204-.3447.4514c-.0845.1134-.1752.222-.2718.3253-.0481.0622-.1074.1149-.1748.1553-.1498.0893-.3141.1518-.4855.1845-.169.0367-.3416.0546-.5145.0534-.1632.0024-.3261-.0139-.4855-.0486-.122-.0223-.2399-.0632-.3495-.1213-.0736-.0586-.1418-.1236-.2039-.1942-.0971-.1019-.2088-.233-.3447-.3883l-.4369-.5389c-.1554-.1942-.3204-.4029-.4855-.6213 0 .3932.0389.7815.0534 1.1699.0146.3883 0 .7427 0 1.0679v.8204c.0014.1446-.0083.289-.0291.432-.0503.1317-.147.2405-.2718.3059-.1461.0671-.3017.1113-.4612.131-.2039.034-.4127.0534-.6311.068-.2185.0146-.4175 0-.6068 0-.1409-.0009-.281-.0188-.4175-.0534-.0723-.021-.1398-.0556-.1991-.1019-.0541-.05-.09-.1166-.1019-.1894-.1311-1.0485-.2379-2.0436-.3156-2.9951-.034-.4029-.0679-.8155-.0971-1.2427-.0291-.4272-.0534-.8301-.0679-1.2233-.0146-.3932-.0292-.7622-.0292-1.102-.0029-.2902.0117-.5804.0437-.8689.0078-.0622.0294-.1219.0631-.1748.0362-.0577.0803-.11.1311-.1553.0688-.0617.1498-.108.2379-.1359.1185-.0463.2425-.0773.3689-.0923.1554-.0242.3302-.0436.5098-.0534.1796-.0097.3738 0 .568 0h.5485c.1699 0 .3156.034.4466.0583.0964.0161.1887.0507.2719.1019.187.1891.3575.3937.5097.6117.1942.2621.3884.5534.5826.8641.1942.3106.3981.631.5971.9708s.3786.6166.5437.8738c.3544-.4563.6651-.8689.9321-1.233s.4854-.6845.7185-.9709c.1793-.2359.3722-.4612.5777-.6747.1485-.1634.3242-.2997.5194-.4029.1562-.0577.3195-.0936.4854-.1068.2118-.0147.4243-.0147.636 0 .1998.0051.3991.0213.5971.0485.1359.0201.2683.0593.3932.1165z"/><path d="m29.8558 77.7961c.1474.134.262.3001.335.4854.1359.2767.2912.6214.4854 1.034s.3447.8786.5292 1.398c.1845.5195.3592 1.0486.5291 1.5874.1699.5389.3253 1.0728.4855 1.5923.1602.5194.267.9951.3592 1.4126.0171.0751.0171.153 0 .2281-.019.0643-.0485.125-.0874.1796-.0504.0715-.1216.1257-.2039.1554-.097.0388-.2524.1019-.4854.1747-.2321.0791-.4688.1439-.7088.1942-.2324.0533-.4703.0794-.7087.0777-.1779.0097-.3525-.0514-.4855-.1699-.078-.099-.1418-.2085-.1893-.3253-.0777-.1699-.1651-.3835-.267-.6359l-.6748-.0922c-.233-.0291-.4612-.0631-.6845-.102-.2233-.0339-.4321-.0679-.6311-.1068l-.5146-.097c-.0777.1941-.1505.3689-.2087.5242-.0583.1554-.1165.2913-.1554.4029-.0388.1117-.0971.2476-.1311.3495-.0227.0689-.0692.1274-.131.1651-.0592.0345-.1258.0545-.1942.0583-.1076.0188-.2177.0188-.3253 0-.1545-.0221-.3071-.0562-.4563-.102-.1652-.0444-.3274-.0996-.4855-.165-.1211-.0518-.2315-.1259-.3252-.2185-.0804-.0887-.1223-.2057-.1165-.3252.0184-.1822.0525-.3625.1019-.5389.0631-.2524.1408-.5534.2428-.898.1019-.3447.2184-.7185.3495-1.1262.1311-.4078.2718-.8204.4126-1.2379s.2816-.8252.4224-1.2281c.1408-.403.2718-.7622.3932-1.0874.1214-.3253.2282-.6068.3252-.8398.0971-.233.1602-.3835.2039-.4855.0729-.0951.1727-.1662.2865-.2039.1566-.062.3193-.1075.4854-.1359.1942-.0291.3981-.0582.6165-.0728.215-.0144.4307-.0144.6457 0 .1887.0114.3766.0325.5631.0631.137.0198.2708.0573.3981.1117zm-2.2913 5.2427.5582.0825.6068.0971c-.1068-.3155-.2087-.6262-.3058-.9369s-.1942-.6165-.2864-.9175c-.0874.2719-.1796.5486-.2767.8301-.0971.2816-.1893.5631-.2961.8447z"/><path d="m36.8561 77.1845c.5771-.0359 1.1551.0535 1.6943.2621.485.1849.924.4732 1.2864.8447.3412.3487.5957.7727.7428 1.2379.1476.4718.1677.9742.0582 1.4563-.0523.2404-.1339.4735-.2427.6941-.1123.2277-.2439.4453-.3932.6505-.1522.203-.3246.3901-.5146.5583-.1864.1657-.3879.3136-.602.4417.1262.0777.2428.1651.3641.2573l.3398.2816c.3095.2615.5822.5635.8108.898.0203.045.035.0922.0436.1408.013.0493.013.1012 0 .1505-.0247.0665-.0646.1263-.1165.1747l-.1505.1457-.2233.199c-.0868.0759-.1776.1472-.2718.2136l-.2864.2087c-.1026.0774-.2096.1487-.3204.2136-.0733.0455-.1567.0722-.2428.0777-.0871-.0038-.1713-.0324-.2427-.0825-.1134-.0741-.222-.1551-.3253-.2428l-.4369-.3446c-.165-.1311-.3252-.2621-.4854-.3884-.1602-.1262-.2573-.2136-.3884-.3155l-.3641-.301v.9078c0 .2815 0 .5291-.0388.7524-.0124.0814-.0335.1611-.0631.2379-.0343.066-.0804.1252-.136.1747-.0677.0602-.1526.0976-.2427.1068-.1605.0313-.3225.0539-.4854.068-.2442.0147-.489.0147-.7331 0-.2379-.0092-.474-.045-.7039-.1068-.0924-.0182-.1798-.0563-.2561-.1116s-.1396-.1266-.1857-.2088c-.0551-.1571-.0926-.32-.1116-.4854-.0389-.2573-.0777-.5728-.1117-.9466s-.0679-.7864-.0971-1.2427c-.0291-.4563-.0582-.9175-.0825-1.3932-.0243-.4758-.0485-.9418-.0631-1.3981s-.034-.8738-.0388-1.2476c-.0049-.3738 0-.6941 0-.9708-.0057-.1723.0057-.3446.0339-.5146.0363-.1006.093-.1926.1665-.2703s.1623-.1394.2607-.1812c.2803-.1438.577-.253.8836-.3252.3722-.0922.7501-.1603 1.1311-.2039.3738-.0194.767-.0485 1.1408-.0728zm-.3786 4.5777c.1993-.0194.3952-.0651.5825-.136.2099-.0698.4056-.1766.5777-.3155.1641-.1284.2941-.295.3787-.4854.044-.1062.0667-.22.0667-.335 0-.1149-.0227-.2288-.0667-.3349-.0579-.1418-.1601-.261-.2913-.3398-.1497-.0858-.3145-.1418-.4855-.1651-.1724-.022-.347-.022-.5194 0-.1653.0115-.3285.0442-.4855.0971.0389.2913.0729.6117.1117.9709s.0874.6796.1311 1.0534z"/><path d="m48.3807 77.568c.0653.0158.1276.042.1845.0777.056.0393.1025.0907.1359.1505.0426.0767.0706.1606.0825.2475v.5146c.0143.2425.0143.4857 0 .7282-.021.2375-.0616.473-.1213.7038-.0145.0846-.0455.1654-.0914.2379-.0458.0724-.1055.1351-.1756.1845-.1472.0509-.3008.0803-.4564.0874-.2378 0-.5291.0388-.8738.0534v.8932l-.0291.9708c0 .3237-.0146.6473-.0437.9709 0 .3252-.0388.6311-.0583.9272-.0436.6942-.097 1.3835-.1602 2.0728-.0023.0375-.0137.0738-.0332.1059-.0194.0321-.0463.0591-.0784.0786-.0745.0492-.1543.0899-.2379.1213-.1579.0464-.321.0725-.4854.0777-.2185 0-.4515.0291-.704.034-.2462.0043-.4924-.0038-.7378-.0243-.1911-.0127-.3792-.0536-.5583-.1213-.0703-.0199-.1356-.0544-.1916-.1013-.0561-.0468-.1016-.105-.1337-.1706-.0374-.1364-.0601-.2763-.0679-.4175 0-.2233-.0389-.4854-.0583-.8252s-.0291-.6845-.0437-1.0825c-.0146-.3981 0-.8059 0-1.2233 0-.4175 0-.8156 0-1.2136 0-.3981 0-.7573 0-1.0923-.4078 0-.7573-.0291-1.0486-.0485-.1849-.001-.369-.0238-.5485-.068-.0576-.0214-.1068-.0605-.1408-.1116-.0406-.0534-.0763-.1102-.1068-.1699-.0622-.1546-.0967-.3189-.102-.4855-.0194-.2038-.0291-.4126-.0291-.6262-.0006-.201.0091-.4019.0291-.6019.0072-.1381.03-.2749.068-.4078.0235-.0721.0597-.1395.1068-.199.0201-.0278.0463-.0505.0766-.0665s.0639-.0248.0982-.0257c.9126-.0874 1.7864-.1554 2.6117-.1942.3544-.0243.7185-.0389 1.0874-.0486.369-.0097.7331 0 1.0826 0s.6748 0 .9709.0243c.2616.0051.5226.0262.7816.0631z"/><path d="m55.3859 77.9272c.0557.0381.1033.0869.1399.1436.0367.0567.0617.1201.0737.1865.0509.1791.0834.3629.0971.5485v.5728.3932c-.0074.0601-.0267.118-.0567.1705s-.0701.0985-.1181.1354c-.0456.0305-.0967.0519-.1505.0631-.3101.0493-.623.0785-.9369.0874-.3738 0-.7719 0-1.1894 0v.7232.7767c.3641 0 .6894.0001.971.0389.176-.0047.3511.0267.5145.0922.0969.0828.1592.1988.1748.3253.0449.178.0709.3602.0777.5436v.5729.3932c-.0088.069-.0284.1362-.0583.199-.0228.042-.0505.0811-.0825.1165-.03.0293-.0667.0509-.1068.0631-.2365.0493-.477.077-.7185.0825-.2864 0-.5922 0-.9126 0-.0243.2428-.0437.4855-.0631.7573-.0195.2719-.034.4855-.0486.7136-.0146.2282-.0388.4854-.0534.733-.0013.0366-.0112.0724-.0289.1044-.0177.0321-.0427.0595-.073.0801-.0714.0503-.15.0896-.2331.1165-.1571.0501-.3205.0779-.4854.0825-.2233 0-.4612.0291-.7136.034-.248.0028-.4958-.0069-.7428-.0291-.1907-.0118-.3787-.051-.5583-.1165-.1844-.0728-.2864-.1651-.3155-.2719-.0572-.1958-.0899-.398-.0971-.6019-.0291-.3253-.0534-.7233-.0777-1.1845-.0242-.4612-.0388-.9709-.0534-1.5291-.0145-.5583 0-1.0971 0-1.6262 0-.5292 0-1.0194 0-1.4563s.0292-.8156.0583-1.0777c.0093-.119.0255-.2373.0485-.3544.022-.1106.0648-.2161.1262-.3107.06-.0922.1396-.1701.2331-.2281.1112-.0674.2389-.1027.3689-.102l.7476-.0436.9709-.034h1.0729 1.0049c.3058 0 .568.0242.7816.0437.1401.0058.2789.0303.4126.0728z"/><path d="m61.4444 77.8059c.2436-.0029.4866.0248.7233.0825.1907.0464.3738.12.5437.2184.1474.0816.2829.1829.4029.301.1048.1012.1962.2154.2719.3398.1764.2847.2813.6078.3058.9418.0437.5291.0728 1.0679.0971 1.6068.0243.5388 0 .9708 0 1.5097-.0078.5062-.0418 1.0118-.1019 1.5145-.0233.2149-.0807.4246-.1699.6214-.1441.3214-.3701.5993-.6554.8058-.1284.0888-.2649.1652-.4078.2282-.3366.1406-.6942.2243-1.0583.2475l-2.1166.034h-.3835c-.1796-.0077-.3582-.0304-.534-.0679-.2058-.041-.4073-.1012-.602-.1797-.2076-.0803-.401-.1934-.5728-.3349-.1838-.1502-.3384-.3329-.4563-.5388-.142-.246-.2313-.5187-.2622-.801-.0584-.5029-.0908-1.0084-.0971-1.5146 0-.5388 0-1.0388 0-1.5097s.0534-1.0777.0874-1.6068c.0246-.334.1295-.657.3059-.9417.0754-.1233.1651-.2373.267-.3398.1181-.1204.2539-.2219.4029-.301.1716-.0984.3563-.172.5486-.2185.2367-.0576.4797-.0853.7233-.0825zm-1.3399 5.8592h.5243c.1211-.0028.2389-.0398.3398-.1068.0929-.07.1595-.1692.1893-.2816.0467-.1774.0696-.3602.068-.5437 0-.165 0-.3446 0-.5291 0-.1844 0-.3689 0-.534 0-.165 0-.3252 0-.4611-.0051-.098-.0181-.1954-.0388-.2913-.0245-.1175-.0706-.2294-.136-.3301-.0535-.0767-.13-.1345-.2184-.165-.1132-.0389-.2305-.065-.3495-.0777-.1241-.0155-.2489-.0236-.3738-.0243-.1326-.0092-.2656.0089-.3908.0532-.1253.0442-.2401.1137-.3374.2041-.1841.2547-.2749.5649-.2573.8786 0 .1797-.0291.3787-.0389.602-.0097.2233 0 .4272 0 .6311.0012.1792.0191.358.0534.5339.0129.1175.0681.2262.1554.3059.1075.061.2265.099.3495.1116.1295.0065.2832.0146.4612.0243z"/><path d="m69.6341 77.8059c.2436-.0029.4866.0248.7233.0825.1907.0464.3738.12.5437.2184.1474.0816.2829.1829.4029.301.1034.1025.1946.2165.2719.3398.1763.2847.2813.6078.3058.9418.0437.5291.0728 1.0679.0971 1.6068.0243.5388 0 .9708 0 1.5097-.0078.5062-.0418 1.0118-.1019 1.5145-.0233.2149-.0806.4246-.1699.6214-.0737.1748-.1717.3382-.2913.4854-.1072.1294-.2313.2437-.369.3398-.126.0898-.2611.1662-.4029.2282-.3366.1407-.6942.2243-1.0583.2476l-2.1166.0339h-.3835c-.1796-.0076-.3582-.0304-.534-.0679-.206-.0404-.4076-.1005-.602-.1796-.2081-.0793-.4017-.1924-.5728-.335-.1838-.1502-.3384-.3328-.4563-.5388-.142-.246-.2313-.5187-.2622-.801-.0584-.5028-.0908-1.0084-.0971-1.5146 0-.5388 0-1.0388 0-1.5097 0-.4708.0534-1.0776.0874-1.6068.0245-.4836.2288-.9407.5729-1.2815.1173-.1192.2514-.2206.398-.301.1737-.0976.3599-.1711.5534-.2184.2368-.0577.4798-.0854.7234-.0826zm-1.3399 5.8592h.5243c.1211-.0028.2389-.0398.3398-.1068.0929-.07.1595-.1692.1893-.2816.0467-.1774.0696-.3602.068-.5437 0-.165 0-.3446 0-.5291 0-.1844 0-.3689 0-.534 0-.165 0-.3252 0-.4611-.0052-.098-.0181-.1954-.0388-.2913-.0266-.1168-.0725-.2284-.136-.3301-.0542-.0781-.1327-.1361-.2233-.165-.1115-.0389-.2272-.065-.3446-.0777-.1257-.0156-.2521-.0237-.3787-.0243-.1317-.0085-.2638.0099-.3882.0541-.1243.0443-.2384.1134-.3351.2032-.1841.2547-.2749.5649-.2573.8787 0 .1796-.0292.3786-.0389.6019s0 .4272 0 .6311c.0012.1792.0191.358.0534.5339.0129.1175.0681.2262.1554.3059.1061.0602.2234.0982.3447.1116.1359 0 .2864.0146.466.0243z"/><path d="m80.1005 79.4369c.23.3135.4101.6606.534 1.0291.1255.373.1958.7622.2088 1.1554.0342.5066-.0403 1.0148-.2185 1.4903-.1754.45-.4284.8657-.7476 1.2281-.3306.3778-.715.7049-1.1408.9709-.4412.2731-.9098.4993-1.3981.6748-.4964.1771-1.0084.3071-1.5292.3883-.5039.0805-1.0144.1114-1.5243.0922-.136 0-.2719 0-.403-.0388-.1267-.0167-.2518-.0443-.3738-.0825-.1056-.0283-.2058-.0743-.2961-.1359-.0774-.0482-.1396-.1172-.1796-.1991-.0509-.1573-.0819-.3204-.0923-.4854-.0242-.2476-.0485-.5534-.0679-.9175-.0195-.3641-.0437-.767-.0583-1.2087-.0146-.4418-.034-.8932-.0437-1.3495s0-.9078-.0243-1.3495v-1.2136c0-.3641 0-.6699.0292-.9224.0057-.1629.0235-.3251.0534-.4854.027-.0825.0756-.1563.1408-.2136.0694-.0555.1462-.1013.2281-.1359.0845-.0338.1724-.0583.2622-.0728l.267-.0437c.4443-.0592.8917-.0932 1.3398-.102.4624-.0096.9248.0147 1.3836.0729.4599.0625.9132.1665 1.3544.3106.4409.1432.863.3388 1.2574.5826.1957.129.3807.2735.5534.432.1784.1604.341.3376.4854.5291zm-4.1264 4.2573c.4229-.0364.8333-.1622 1.204-.3689.3046-.1732.5654-.414.7622-.7039.166-.2568.2599-.5536.2718-.8592.0138-.3021-.0715-.6004-.2427-.8496-.2065-.2927-.4883-.5242-.8156-.6699-.4511-.2028-.9377-.315-1.4321-.3301.0534.5923.102 1.2088.1554 1.8447s.0631 1.2816.0776 1.9369z"/></g><path d="m27.4285 43.2039h32.0401v23.3543c0 1.1446-.4546 2.2422-1.264 3.0516-.8093.8093-1.9071 1.264-3.0517 1.264h-23.4087c-1.1446 0-2.2423-.4547-3.0517-1.264-.8093-.8094-1.264-1.907-1.264-3.0516z" fill="url(#c)"/><path d="m31.7442 24.2719h23.4087c1.1446 0 2.2424.4546 3.0517 1.2639.8094.8094 1.264 1.907 1.264 3.0516v12.6747h-32.0401v-12.6747c0-1.1446.4547-2.2422 1.264-3.0516.8094-.8093 1.9071-1.2639 3.0517-1.2639z" fill="url(#d)"/><path d="m31.6326 33.7913v4.2718" stroke="#fff" stroke-miterlimit="10" stroke-width="4"/><path d="m31.6326 45.5776v4.2719" stroke="#fff" stroke-miterlimit="10" stroke-width="4"/></svg>