<svg width="167" height="195" viewBox="0 0 167 195" fill="none" xmlns="http://www.w3.org/2000/svg">
<path d="M94.2182 41.2934C95.9467 40.4674 97.3007 39.0182 98.0099 37.2352C98.719 35.4523 98.7311 33.4667 98.0436 31.6752C97.3561 29.8837 96.0198 28.4181 94.3014 27.5712C92.5831 26.7242 90.6092 26.5583 88.7742 27.1065C88.2932 26.0454 87.5225 25.1425 86.5512 24.5019C85.58 23.8614 84.4477 23.5094 83.2853 23.4867C82.1229 23.4639 80.9778 23.7713 79.9823 24.3734C78.9869 24.9754 78.1816 25.8475 77.6597 26.8889C77.0195 26.7178 76.3597 26.632 75.6972 26.6336C73.931 26.6646 72.2306 27.3111 70.8881 28.4619C69.5455 29.6128 68.6445 31.1963 68.3398 32.9406C68.0351 34.6849 68.3457 36.481 69.2182 38.0208C70.0908 39.5605 71.4708 40.7477 73.1214 41.3785V45.3981H94.171C94.1804 44.0267 94.1993 42.6553 94.2182 41.2934Z" fill="#FE6A6E"/>
<path d="M17.9832 159.508C18.5021 159.83 19.0776 160.161 19.7098 160.454C20.3318 160.792 20.9307 161.171 21.5024 161.589C22.0637 161.992 22.5655 162.473 22.9932 163.017C23.4211 163.569 23.7063 164.219 23.8235 164.909C23.939 165.567 23.8871 166.243 23.6725 166.876C23.4695 167.504 23.1493 168.088 22.729 168.597C22.2928 169.116 21.761 169.547 21.1628 169.864C20.5511 170.188 19.8803 170.385 19.1909 170.441C18.14 170.53 17.0823 170.496 16.0396 170.337C15.0444 170.172 14.07 169.9 13.1336 169.524C12.7566 169.385 12.3907 169.217 12.0391 169.023C11.7652 168.886 11.5433 168.664 11.407 168.389C11.3339 168.14 11.3178 167.879 11.3598 167.623C11.392 167.274 11.4681 166.931 11.5862 166.601C11.709 166.268 11.8705 165.951 12.0674 165.656C12.2349 165.39 12.4736 165.177 12.7562 165.041C13.1043 164.882 13.4916 164.829 13.8695 164.89L14.3224 165.022L15.1338 165.249L16.0396 165.514C16.2646 165.586 16.4949 165.639 16.7283 165.675C17.1487 165.791 17.5862 165.833 18.0209 165.798C18.2757 165.75 18.4172 165.656 18.4266 165.523C18.4361 165.391 18.3511 165.221 18.1341 165.031C17.8857 164.805 17.61 164.612 17.3133 164.455C16.8793 164.237 16.4358 164.01 15.9641 163.792C15.4923 163.575 15.0206 163.338 14.5866 163.083C14.141 162.81 13.7238 162.493 13.3411 162.137C12.9459 161.774 12.6253 161.337 12.3976 160.851C11.9665 160.137 11.7564 159.311 11.7938 158.477C11.8353 157.713 12.076 156.972 12.492 156.33C12.9182 155.658 13.4848 155.087 14.1526 154.656C14.8538 154.192 15.6392 153.871 16.4641 153.71C16.9679 153.611 17.4794 153.557 17.9926 153.55C18.5321 153.534 19.072 153.566 19.606 153.644C20.1471 153.721 20.6806 153.844 21.2005 154.013C21.7133 154.168 22.2047 154.388 22.663 154.666C22.8918 154.776 23.0944 154.935 23.2571 155.131C23.4199 155.326 23.539 155.555 23.6065 155.801C23.7106 156.236 23.7106 156.689 23.6065 157.125C23.5157 157.536 23.3797 157.935 23.2007 158.316C23.0802 158.598 22.8801 158.838 22.6252 159.007C22.3801 159.159 22.0913 159.226 21.8044 159.196C21.4107 159.154 21.0257 159.052 20.6627 158.893C20.1165 158.677 19.5463 158.528 18.9644 158.449C18.5781 158.373 18.1808 158.373 17.7945 158.449C17.5209 158.524 17.3982 158.657 17.4076 158.846C17.4171 159.035 17.568 159.253 17.9832 159.508Z" fill="#FE6A6E"/>
<path d="M45.2881 153.975C45.459 154.026 45.6082 154.133 45.7127 154.278C45.8088 154.414 45.8762 154.569 45.9108 154.732C46.0447 155.32 46.133 155.918 46.175 156.519C46.2411 157.238 46.2788 158.014 46.3071 158.855C46.3354 159.697 46.3071 160.577 46.3071 161.485C46.3071 162.393 46.2505 163.291 46.2128 164.171C46.175 165.05 46.109 165.883 46.0429 166.677C45.9769 167.472 45.9014 168.162 45.8354 168.748C45.8082 168.889 45.7572 169.023 45.6844 169.146C45.6116 169.263 45.5111 169.36 45.3919 169.429C45.2428 169.512 45.0797 169.567 44.9107 169.59L43.9672 169.675C43.5022 169.704 43.0359 169.704 42.5708 169.675C42.1192 169.67 41.6697 169.613 41.2311 169.505C41.0633 169.485 40.9025 169.425 40.7617 169.332C40.6208 169.238 40.5037 169.113 40.4197 168.966C40.3374 168.702 40.2898 168.429 40.2781 168.153C40.2781 167.736 40.2215 167.207 40.2026 166.63C40.1838 166.053 40.2026 165.353 40.2026 164.625C40.2026 163.896 40.2026 163.159 40.2026 162.412C39.9385 162.799 39.6837 163.149 39.4384 163.48C39.1931 163.811 38.9761 164.105 38.7685 164.36C38.6043 164.581 38.4279 164.792 38.2402 164.994C38.1467 165.115 38.0315 165.217 37.9005 165.296C37.6093 165.47 37.29 165.592 36.957 165.656C36.6285 165.727 36.2931 165.762 35.9569 165.76C35.6398 165.764 35.3232 165.733 35.0134 165.665C34.7762 165.622 34.5471 165.542 34.3341 165.429C34.1911 165.314 34.0585 165.188 33.9378 165.05C33.7491 164.852 33.5321 164.596 33.2679 164.294L32.4187 163.244C32.1168 162.866 31.796 162.459 31.4752 162.033C31.4752 162.799 31.5507 163.556 31.579 164.313C31.6073 165.069 31.579 165.76 31.579 166.393C31.579 167.027 31.579 167.557 31.579 167.992C31.5817 168.273 31.5627 168.555 31.5224 168.834C31.4247 169.09 31.2368 169.302 30.9941 169.429C30.7102 169.56 30.4078 169.646 30.0977 169.685C29.7015 169.751 29.2958 169.789 28.8712 169.817C28.4466 169.846 28.0598 169.817 27.6918 169.817C27.4181 169.815 27.1457 169.781 26.8804 169.713C26.74 169.672 26.6087 169.605 26.4935 169.514C26.3883 169.417 26.3185 169.287 26.2954 169.146C26.0407 167.103 25.8331 165.164 25.6821 163.31C25.6161 162.525 25.55 161.721 25.4934 160.889C25.4368 160.057 25.3896 159.272 25.3613 158.505C25.333 157.739 25.3047 157.021 25.3047 156.359C25.299 155.793 25.3274 155.228 25.3896 154.666C25.4048 154.544 25.4467 154.428 25.5123 154.325C25.5825 154.213 25.6683 154.111 25.767 154.022C25.9007 153.902 26.0583 153.812 26.2294 153.758C26.4598 153.667 26.7008 153.607 26.9464 153.578C27.2483 153.531 27.588 153.493 27.9371 153.474C28.2862 153.455 28.6636 153.474 29.041 153.474C29.4184 153.474 29.7769 153.474 30.1072 153.474C30.4374 153.474 30.7204 153.54 30.9752 153.587C31.1624 153.619 31.3419 153.686 31.5035 153.786C31.867 154.154 32.1984 154.553 32.4942 154.978C32.8716 155.488 33.249 156.056 33.6264 156.661C34.0038 157.266 34.4001 157.891 34.7869 158.553C35.1738 159.215 35.5229 159.754 35.8437 160.255C36.5324 159.366 37.1363 158.562 37.6552 157.853C38.1741 157.144 38.5987 156.519 39.0516 155.961C39.4001 155.502 39.775 155.063 40.1743 154.647C40.463 154.328 40.8046 154.063 41.1839 153.862C41.4874 153.749 41.8049 153.679 42.1274 153.654C42.5389 153.625 42.9519 153.625 43.3634 153.654C43.7517 153.664 44.1391 153.695 44.5239 153.748C44.788 153.787 45.0453 153.864 45.2881 153.975V153.975Z" fill="#FE6A6E"/>
<path d="M58.0254 153.464C58.3117 153.726 58.5345 154.049 58.6764 154.41C58.9406 154.949 59.2425 155.621 59.6199 156.425C59.9973 157.229 60.2898 158.137 60.6483 159.149C61.0068 160.161 61.3465 161.192 61.6767 162.241C62.007 163.291 62.3089 164.332 62.6202 165.344C62.9316 166.356 63.1392 167.282 63.3184 168.096C63.3516 168.242 63.3516 168.394 63.3184 168.54C63.2815 168.666 63.2241 168.784 63.1486 168.89C63.0505 169.029 62.9122 169.135 62.7523 169.193C62.5636 169.269 62.2617 169.392 61.8088 169.533C61.3577 169.687 60.8977 169.814 60.4313 169.912C59.9796 170.016 59.5173 170.066 59.0538 170.063C58.708 170.082 58.3689 169.963 58.1103 169.732C57.9586 169.539 57.8347 169.326 57.7423 169.098C57.5914 168.767 57.4215 168.351 57.2234 167.859L55.9119 167.68C55.459 167.623 55.0156 167.557 54.5816 167.481C54.1476 167.415 53.7419 167.349 53.355 167.273L52.3549 167.084C52.204 167.462 52.0624 167.803 51.9492 168.105C51.836 168.408 51.7228 168.673 51.6473 168.89C51.5718 169.108 51.4586 169.373 51.3926 169.571C51.3483 169.705 51.258 169.819 51.1378 169.893C51.0228 169.96 50.8934 169.999 50.7604 170.006C50.5513 170.043 50.3374 170.043 50.1283 170.006C49.8279 169.963 49.5314 169.897 49.2414 169.808C48.9202 169.721 48.6051 169.614 48.2979 169.486C48.0623 169.385 47.8479 169.241 47.6657 169.061C47.5094 168.888 47.428 168.66 47.4393 168.427C47.4751 168.072 47.5414 167.721 47.6374 167.377C47.7601 166.885 47.911 166.299 48.1092 165.627C48.3073 164.956 48.5337 164.228 48.7885 163.433C49.0432 162.639 49.3168 161.835 49.5905 161.021C49.8641 160.208 50.1377 159.413 50.4113 158.628C50.6849 157.843 50.9397 157.144 51.1755 156.51C51.4114 155.876 51.619 155.328 51.8077 154.874C51.9964 154.42 52.119 154.126 52.204 153.928C52.3455 153.742 52.5395 153.604 52.7606 153.531C53.0651 153.41 53.3813 153.321 53.7041 153.266C54.0815 153.209 54.4778 153.152 54.9024 153.124C55.3202 153.096 55.7394 153.096 56.1572 153.124C56.5239 153.146 56.8892 153.187 57.2517 153.247C57.5179 153.285 57.778 153.358 58.0254 153.464ZM53.572 163.679L54.6571 163.84L55.8364 164.029C55.6289 163.414 55.4307 162.809 55.242 162.204C55.0533 161.598 54.8646 161.002 54.6854 160.416C54.5155 160.946 54.3363 161.485 54.1476 162.033C53.9589 162.582 53.7796 163.13 53.572 163.679Z" fill="#FE6A6E"/>
<path d="M71.6307 152.273C72.7522 152.203 73.8756 152.377 74.9235 152.783C75.8662 153.144 76.7193 153.705 77.4238 154.429C78.087 155.108 78.5814 155.935 78.8674 156.841C79.1542 157.76 79.1933 158.739 78.9806 159.678C78.8788 160.147 78.7204 160.601 78.5088 161.031C78.2906 161.474 78.0349 161.898 77.7446 162.298C77.4488 162.694 77.1137 163.058 76.7445 163.386C76.3822 163.709 75.9905 163.997 75.5745 164.246V164.246C75.8199 164.398 76.0463 164.568 76.2822 164.748L76.9426 165.296C77.544 165.806 78.074 166.394 78.5183 167.046C78.5578 167.133 78.5863 167.226 78.6032 167.32C78.6284 167.416 78.6284 167.517 78.6032 167.613C78.5552 167.743 78.4776 167.86 78.3768 167.954L78.0843 168.238L77.6503 168.625C77.4815 168.773 77.3051 168.912 77.1219 169.042L76.5652 169.448C76.3659 169.599 76.158 169.738 75.9425 169.864C75.8001 169.953 75.638 170.005 75.4708 170.016C75.3014 170.008 75.1377 169.953 74.999 169.855C74.7787 169.711 74.5675 169.553 74.3669 169.382L73.5177 168.711C73.1969 168.455 72.8856 168.2 72.5742 167.954C72.2629 167.708 72.0742 167.538 71.8194 167.339L71.1118 166.753C71.1118 167.377 71.1118 167.973 71.1118 168.521C71.1118 169.07 71.1118 169.552 71.0363 169.987C71.0123 170.146 70.9712 170.301 70.9136 170.451C70.847 170.579 70.7574 170.695 70.6495 170.791C70.5179 170.908 70.3528 170.981 70.1777 170.999C69.8658 171.06 69.5508 171.104 69.2342 171.132C68.7597 171.16 68.284 171.16 67.8095 171.132C67.3472 171.114 66.8883 171.044 66.4414 170.924C66.2618 170.888 66.0919 170.814 65.9437 170.706C65.7954 170.598 65.6723 170.46 65.5829 170.299C65.4756 169.993 65.4028 169.676 65.3658 169.354C65.2904 168.852 65.2149 168.238 65.1488 167.509C65.0828 166.781 65.0167 165.977 64.9601 165.088C64.9035 164.199 64.8469 163.301 64.7997 162.374C64.7526 161.447 64.7054 160.539 64.6771 159.65C64.6488 158.761 64.611 157.947 64.6016 157.219C64.5922 156.491 64.6016 155.867 64.6016 155.328C64.5907 154.992 64.6128 154.656 64.6677 154.325C64.7382 154.129 64.8483 153.95 64.9912 153.798C65.1341 153.647 65.3066 153.527 65.4979 153.445C66.0426 153.165 66.6192 152.952 67.2151 152.812C67.9386 152.632 68.6729 152.499 69.4135 152.415C70.14 152.377 70.9042 152.32 71.6307 152.273ZM70.8948 161.191C71.2822 161.154 71.6629 161.065 72.027 160.927C72.4349 160.791 72.8152 160.582 73.1497 160.312C73.4686 160.062 73.7213 159.737 73.8857 159.366C73.9713 159.159 74.0154 158.937 74.0154 158.714C74.0154 158.49 73.9713 158.268 73.8857 158.061C73.7733 157.785 73.5747 157.552 73.3196 157.399C73.0287 157.232 72.7083 157.123 72.3761 157.077C72.0409 157.034 71.7017 157.034 71.3665 157.077C71.0453 157.1 70.7282 157.163 70.423 157.266C70.4985 157.834 70.5645 158.458 70.64 159.158C70.7155 159.858 70.8099 160.482 70.8948 161.21V161.191Z" fill="#FE6A6E"/>
<path d="M94.0295 153.02C94.1564 153.051 94.2775 153.102 94.3881 153.171C94.4969 153.248 94.5872 153.348 94.6522 153.464C94.735 153.614 94.7894 153.777 94.8126 153.947C94.8126 154.164 94.8126 154.495 94.8126 154.949C94.8404 155.422 94.8404 155.895 94.8126 156.368C94.7718 156.831 94.6929 157.289 94.5768 157.739C94.5486 157.904 94.4883 158.061 94.3992 158.203C94.3102 158.344 94.1942 158.466 94.0578 158.562C93.7719 158.661 93.4732 158.719 93.1709 158.732C92.7086 158.732 92.1425 158.808 91.4726 158.836C91.4726 159.385 91.4726 159.962 91.4726 160.577L91.416 162.468C91.416 163.099 91.3877 163.729 91.3311 164.36C91.3311 164.994 91.2556 165.589 91.2179 166.166C91.133 167.519 91.0292 168.862 90.9065 170.205C90.9019 170.278 90.8798 170.349 90.842 170.411C90.8042 170.474 90.7519 170.526 90.6895 170.564C90.5447 170.66 90.3896 170.739 90.2272 170.801C89.9204 170.891 89.6033 170.942 89.2837 170.952C88.8591 170.952 88.4062 171.009 87.9156 171.018C87.4371 171.027 86.9585 171.011 86.4815 170.971C86.1102 170.946 85.7445 170.867 85.3965 170.735C85.2599 170.696 85.133 170.629 85.024 170.537C84.9151 170.446 84.8266 170.333 84.7643 170.205C84.6917 169.939 84.6474 169.667 84.6322 169.392C84.6322 168.956 84.5568 168.446 84.519 167.784C84.4813 167.122 84.4624 166.45 84.4341 165.675C84.4058 164.899 84.4341 164.105 84.4341 163.291C84.4341 162.478 84.4341 161.702 84.4341 160.927C84.4341 160.151 84.4341 159.451 84.4341 158.799C83.6416 158.799 82.9622 158.742 82.3961 158.704C82.0368 158.702 81.6789 158.658 81.33 158.572C81.2182 158.53 81.1224 158.454 81.0564 158.354C80.9775 158.25 80.9081 158.139 80.8488 158.023C80.728 157.722 80.6609 157.402 80.6507 157.077C80.6129 156.68 80.594 156.273 80.594 155.857C80.5929 155.466 80.6118 155.074 80.6507 154.684C80.6646 154.415 80.7089 154.149 80.7827 153.89C80.8285 153.749 80.8988 153.618 80.9903 153.502C81.0294 153.448 81.0803 153.404 81.1392 153.373C81.1981 153.341 81.2634 153.324 81.33 153.322C83.1038 153.152 84.8021 153.02 86.406 152.944C87.0948 152.897 87.8024 152.869 88.5195 152.85C89.2365 152.831 89.9442 152.85 90.6235 152.85C91.3028 152.85 91.9349 152.85 92.5105 152.897C93.0189 152.907 93.5261 152.948 94.0295 153.02V153.02Z" fill="#FE6A6E"/>
<path d="M107.644 153.72C107.752 153.794 107.845 153.889 107.916 154C107.987 154.11 108.036 154.234 108.059 154.363C108.158 154.712 108.221 155.07 108.248 155.432C108.248 155.819 108.248 156.188 108.248 156.548C108.248 156.907 108.248 157.162 108.248 157.314C108.234 157.431 108.196 157.544 108.138 157.646C108.08 157.748 108.002 157.838 107.908 157.91C107.82 157.969 107.72 158.011 107.616 158.033C107.013 158.129 106.405 158.186 105.795 158.203C105.068 158.203 104.295 158.203 103.483 158.203C103.483 158.647 103.483 159.149 103.483 159.612C103.483 160.076 103.483 160.605 103.483 161.125C104.191 161.125 104.823 161.125 105.37 161.201C105.712 161.192 106.053 161.253 106.37 161.381C106.559 161.542 106.68 161.768 106.71 162.014C106.797 162.361 106.848 162.716 106.861 163.074C106.861 163.461 106.861 163.83 106.861 164.19C106.861 164.549 106.861 164.804 106.861 164.956C106.844 165.09 106.806 165.221 106.748 165.344C106.704 165.425 106.65 165.502 106.587 165.571C106.529 165.628 106.458 165.67 106.38 165.694C105.92 165.79 105.453 165.843 104.984 165.854C104.427 165.854 103.832 165.854 103.21 165.854C103.163 166.327 103.125 166.8 103.087 167.33C103.049 167.859 103.021 168.276 102.993 168.72C102.964 169.165 102.917 169.666 102.889 170.148C102.886 170.219 102.867 170.289 102.833 170.352C102.798 170.414 102.75 170.468 102.691 170.508C102.552 170.606 102.399 170.682 102.238 170.735C101.932 170.832 101.615 170.886 101.294 170.895C100.86 170.895 100.398 170.952 99.9075 170.962C99.4256 170.967 98.9438 170.948 98.4639 170.905C98.0932 170.882 97.7278 170.805 97.3789 170.678C97.0203 170.536 96.8222 170.356 96.7656 170.148C96.6544 169.767 96.591 169.373 96.5769 168.975C96.5203 168.342 96.4731 167.566 96.4259 166.668C96.3788 165.769 96.3505 164.776 96.3222 163.688C96.2938 162.601 96.3222 161.551 96.3222 160.52C96.3222 159.489 96.3222 158.534 96.3222 157.683C96.3222 156.831 96.3788 156.094 96.4354 155.583C96.4535 155.351 96.485 155.121 96.5297 154.893C96.5724 154.677 96.6557 154.472 96.775 154.287C96.8915 154.107 97.0462 153.956 97.2279 153.843C97.444 153.711 97.6922 153.643 97.945 153.644L99.398 153.559L101.285 153.493C101.974 153.493 102.672 153.493 103.37 153.493H105.323C105.918 153.493 106.427 153.54 106.842 153.578C107.115 153.589 107.384 153.637 107.644 153.72V153.72Z" fill="#FE6A6E"/>
<path d="M119.419 153.483C119.893 153.478 120.365 153.532 120.825 153.644C121.196 153.735 121.552 153.878 121.882 154.07C122.168 154.229 122.432 154.426 122.665 154.656C122.868 154.853 123.046 155.076 123.193 155.318C123.536 155.873 123.74 156.502 123.788 157.153C123.873 158.184 123.929 159.234 123.976 160.284C124.023 161.333 123.976 162.175 123.976 163.225C123.961 164.211 123.895 165.196 123.778 166.176C123.733 166.594 123.621 167.003 123.448 167.386C123.168 168.013 122.729 168.554 122.174 168.956C121.925 169.13 121.659 169.278 121.382 169.401C120.728 169.675 120.032 169.838 119.325 169.883L115.211 169.95H114.466C114.117 169.935 113.77 169.89 113.428 169.817C113.028 169.737 112.636 169.62 112.258 169.467C111.854 169.311 111.479 169.09 111.145 168.815C110.788 168.522 110.487 168.166 110.258 167.765C109.982 167.286 109.808 166.754 109.748 166.204C109.635 165.225 109.572 164.24 109.56 163.253C109.56 162.204 109.56 161.229 109.56 160.312C109.56 159.395 109.663 158.212 109.729 157.181C109.777 156.531 109.981 155.901 110.324 155.347C110.471 155.106 110.645 154.884 110.843 154.684C111.072 154.45 111.336 154.252 111.626 154.098C111.959 153.906 112.318 153.763 112.692 153.672C113.152 153.56 113.624 153.506 114.098 153.512L119.419 153.483ZM116.815 164.899C117.221 164.899 117.56 164.899 117.834 164.899C118.069 164.894 118.298 164.821 118.495 164.691C118.675 164.555 118.805 164.361 118.863 164.142C118.953 163.797 118.998 163.441 118.995 163.083C118.995 162.762 118.995 162.412 118.995 162.052C118.995 161.693 118.995 161.333 118.995 161.012C118.995 160.69 118.995 160.378 118.995 160.113C118.985 159.922 118.959 159.733 118.919 159.546C118.871 159.317 118.782 159.099 118.655 158.903C118.551 158.753 118.402 158.641 118.23 158.581C118.01 158.505 117.782 158.455 117.551 158.43C117.31 158.4 117.067 158.384 116.825 158.383C116.567 158.365 116.308 158.4 116.065 158.486C115.822 158.572 115.598 158.708 115.409 158.884C115.052 159.38 114.875 159.984 114.909 160.596C114.909 160.946 114.853 161.333 114.834 161.768C114.815 162.204 114.834 162.601 114.834 162.998C114.836 163.347 114.871 163.696 114.938 164.038C114.962 164.267 115.07 164.479 115.239 164.634C115.448 164.753 115.68 164.827 115.919 164.852C116.17 164.864 116.469 164.88 116.815 164.899V164.899Z" fill="#FE6A6E"/>
<path d="M135.336 153.483C135.81 153.478 136.282 153.532 136.742 153.644C137.113 153.735 137.468 153.878 137.799 154.07C138.085 154.229 138.348 154.426 138.582 154.656C138.783 154.856 138.96 155.078 139.11 155.318C139.453 155.873 139.657 156.502 139.704 157.153C139.789 158.184 139.846 159.234 139.893 160.284C139.94 161.333 139.893 162.175 139.893 163.225C139.878 164.211 139.812 165.196 139.695 166.176C139.65 166.594 139.538 167.003 139.365 167.386C139.222 167.727 139.031 168.045 138.799 168.332C138.59 168.584 138.349 168.807 138.082 168.994C137.837 169.169 137.574 169.318 137.299 169.439C136.644 169.713 135.949 169.876 135.242 169.921L131.128 169.987H130.383C130.034 169.972 129.686 169.928 129.345 169.855C128.944 169.776 128.553 169.659 128.175 169.505C127.77 169.351 127.394 169.13 127.062 168.852C126.704 168.56 126.404 168.204 126.175 167.803C125.899 167.323 125.725 166.792 125.665 166.242C125.552 165.262 125.489 164.277 125.476 163.291C125.476 162.241 125.476 161.267 125.476 160.35C125.476 159.432 125.58 158.25 125.646 157.219C125.694 156.277 126.091 155.386 126.76 154.722C126.988 154.49 127.248 154.292 127.533 154.136C127.871 153.946 128.233 153.803 128.609 153.71C129.069 153.598 129.541 153.544 130.015 153.55L135.336 153.483ZM132.732 164.899C133.138 164.899 133.477 164.899 133.751 164.899C133.986 164.894 134.215 164.821 134.411 164.691C134.592 164.555 134.721 164.361 134.779 164.142C134.87 163.797 134.915 163.44 134.911 163.083C134.911 162.762 134.911 162.412 134.911 162.052C134.911 161.693 134.911 161.333 134.911 161.012C134.911 160.69 134.911 160.378 134.911 160.113C134.901 159.922 134.876 159.733 134.836 159.546C134.784 159.318 134.695 159.101 134.572 158.903C134.466 158.751 134.314 158.638 134.138 158.581C133.921 158.505 133.696 158.455 133.468 158.43C133.224 158.399 132.978 158.384 132.732 158.383C132.476 158.366 132.219 158.402 131.978 158.488C131.736 158.574 131.514 158.709 131.326 158.884C130.968 159.38 130.792 159.984 130.826 160.596C130.826 160.946 130.769 161.333 130.751 161.768C130.732 162.204 130.751 162.601 130.751 162.998C130.753 163.347 130.788 163.696 130.854 164.038C130.879 164.267 130.987 164.479 131.156 164.634C131.363 164.752 131.59 164.826 131.826 164.852C132.09 164.852 132.383 164.88 132.732 164.899Z" fill="#FE6A6E"/>
<path d="M155.678 156.661C156.125 157.272 156.475 157.948 156.716 158.666C156.96 159.393 157.096 160.151 157.122 160.917C157.188 161.904 157.043 162.894 156.697 163.821C156.356 164.698 155.864 165.507 155.244 166.214C154.601 166.95 153.854 167.587 153.027 168.105C152.169 168.637 151.259 169.078 150.309 169.42C149.345 169.765 148.35 170.018 147.337 170.177C146.358 170.333 145.366 170.393 144.375 170.356C144.111 170.356 143.846 170.356 143.592 170.281C143.345 170.248 143.102 170.194 142.865 170.12C142.66 170.065 142.465 169.975 142.29 169.855C142.139 169.761 142.018 169.627 141.941 169.467C141.842 169.161 141.781 168.843 141.761 168.521C141.714 168.039 141.667 167.443 141.629 166.734C141.591 166.024 141.544 165.239 141.516 164.379C141.488 163.518 141.45 162.639 141.431 161.75C141.412 160.86 141.431 159.981 141.384 159.12V156.756C141.384 156.046 141.384 155.451 141.441 154.959C141.452 154.641 141.486 154.325 141.544 154.013C141.597 153.852 141.691 153.708 141.818 153.597C141.953 153.489 142.102 153.399 142.261 153.332C142.425 153.266 142.596 153.218 142.771 153.19L143.29 153.105C144.153 152.99 145.023 152.923 145.894 152.906C146.792 152.888 147.691 152.935 148.583 153.048C149.477 153.17 150.358 153.373 151.215 153.654C152.072 153.933 152.893 154.314 153.659 154.788C154.039 155.04 154.399 155.321 154.734 155.63C155.081 155.943 155.397 156.288 155.678 156.661V156.661ZM147.658 164.956C148.48 164.885 149.278 164.64 149.998 164.237C150.59 163.9 151.097 163.43 151.479 162.866C151.802 162.365 151.985 161.787 152.008 161.191C152.034 160.603 151.869 160.022 151.536 159.536C151.135 158.966 150.587 158.515 149.951 158.231C149.074 157.836 148.128 157.617 147.168 157.588C147.271 158.742 147.366 159.943 147.47 161.182C147.573 162.421 147.592 163.679 147.62 164.956H147.658Z" fill="#FE6A6E"/>
<path d="M53.3079 86.0671H115.579V131.569C115.579 133.799 114.695 135.938 113.122 137.515C111.549 139.091 109.416 139.977 107.191 139.977H61.6956C59.471 139.977 57.3376 139.091 55.7646 137.515C54.1916 135.938 53.3079 133.799 53.3079 131.569V86.0671Z" fill="#FE6A6E"/>
<path d="M61.6956 49.1813H107.191C109.416 49.1813 111.549 50.0671 113.122 51.6439C114.695 53.2208 115.579 55.3594 115.579 57.5894V82.284H53.3079V57.5894C53.3079 55.3594 54.1916 53.2208 55.7646 51.6439C57.3376 50.0671 59.471 49.1813 61.6956 49.1813Z" fill="#FE6A6E"/>
<path d="M61.4786 67.7283V76.0513" stroke="white" stroke-width="2" stroke-miterlimit="10" stroke-linecap="round"/>
<path d="M61.4786 92.5837V100.907" stroke="white" stroke-width="2" stroke-miterlimit="10" stroke-linecap="round"/>
</svg>
