<svg width="22" height="22" viewBox="0 0 22 22" fill="none" xmlns="http://www.w3.org/2000/svg">
<path d="M16.8181 6.47109C16.4533 5.83995 15.8528 5.3795 15.1485 5.19096C14.4443 5.00242 13.6941 5.10121 13.0627 5.46562C12.8591 5.5814 12.6714 5.72293 12.5041 5.88672L11.258 3.72969C10.8931 3.09854 10.2926 2.63809 9.58838 2.44955C8.88417 2.26101 8.13391 2.3598 7.50251 2.72422C7.21656 2.88518 6.96303 3.09791 6.75486 3.35156C6.50056 3.18452 6.2224 3.05703 5.92986 2.97344C5.40457 2.8327 4.84935 2.85086 4.33439 3.02563C3.81943 3.20039 3.36784 3.52391 3.03672 3.95529C2.7056 4.38667 2.50981 4.90654 2.4741 5.44918C2.43839 5.99181 2.56437 6.53286 2.83611 7.00391L2.87908 7.08125C2.65332 7.14095 2.43656 7.23054 2.23454 7.34766C1.6034 7.71251 1.14295 8.31304 0.954408 9.01725C0.765866 9.72147 0.864661 10.4717 1.22908 11.1031L4.83845 17.3594C5.88688 19.1759 7.61399 20.5015 9.63982 21.0447C11.6657 21.5878 13.8243 21.3039 15.6408 20.2555C17.4573 19.207 18.783 17.4799 19.3261 15.4541C19.8692 13.4283 19.5853 11.2697 18.5369 9.45312L16.8181 6.47109ZM14.6095 18.468C13.2666 19.2408 11.672 19.4495 10.1754 19.0484C8.67881 18.6472 7.40236 17.669 6.62595 16.3281L3.01658 10.0719C2.97178 9.99467 2.94265 9.90939 2.93086 9.82091C2.91906 9.73243 2.92483 9.6425 2.94783 9.55625C2.99609 9.3804 3.10987 9.22972 3.26579 9.13516C3.4245 9.04414 3.61265 9.01925 3.78956 9.06589C3.96647 9.11253 4.1179 9.22694 4.21111 9.38437L6.10173 12.6586L6.44548 13.2516C6.50698 13.3798 6.59434 13.4939 6.70206 13.5867C6.80978 13.6796 6.93554 13.7491 7.07144 13.791C7.20733 13.833 7.35043 13.8463 7.49173 13.8302C7.63303 13.8142 7.76948 13.7691 7.89251 13.6978C8.01554 13.6264 8.12249 13.5304 8.20664 13.4158C8.29079 13.3012 8.35032 13.1704 8.38149 13.0316C8.41265 12.8928 8.41479 12.7491 8.38775 12.6095C8.36072 12.4699 8.3051 12.3374 8.22439 12.2203L4.61501 5.96406C4.52881 5.8067 4.5043 5.62288 4.54626 5.44844C4.57037 5.36024 4.61162 5.27766 4.66765 5.2054C4.72369 5.13315 4.7934 5.07265 4.87283 5.02734C4.94928 4.98069 5.03462 4.95048 5.12339 4.93864C5.21217 4.9268 5.30244 4.9336 5.38845 4.95859C5.5643 5.00686 5.71498 5.12064 5.80954 5.27656L6.49704 6.47109L7.61423 8.40469L9.41892 11.5328C9.55567 11.7698 9.78098 11.9429 10.0453 12.0138C10.3096 12.0847 10.5913 12.0477 10.8283 11.9109C11.0653 11.7742 11.2383 11.5489 11.3092 11.2846C11.3802 11.0203 11.3432 10.7386 11.2064 10.5016L10.5189 9.30703L9.40173 7.37344L8.28454 5.43984C8.20971 5.28382 8.19646 5.10531 8.24745 4.93994C8.29844 4.77458 8.40992 4.63453 8.55963 4.54774C8.70934 4.46095 8.88627 4.43381 9.05511 4.47174C9.22394 4.50966 9.37227 4.60987 9.47048 4.75234L12.0486 9.2125L13.5955 11.8937C13.7322 12.1308 13.9575 12.3038 14.2219 12.3747C14.3527 12.4098 14.4892 12.4188 14.6236 12.4012C14.7579 12.3835 14.8875 12.3396 15.0049 12.2719C15.1222 12.2042 15.2251 12.114 15.3076 12.0065C15.3902 11.899 15.4507 11.7764 15.4858 11.6455C15.5209 11.5146 15.5299 11.3781 15.5123 11.2438C15.4946 11.1094 15.4507 10.9799 15.383 10.8625L14.6955 9.67656L13.8361 8.18984C13.7499 8.03249 13.7254 7.84867 13.7674 7.67422C13.7915 7.58602 13.8327 7.50344 13.8887 7.43119C13.9448 7.35893 14.0145 7.29843 14.0939 7.25313C14.2513 7.16252 14.4382 7.13788 14.6137 7.18457C14.7892 7.23126 14.9391 7.3455 15.0306 7.50234L16.7494 10.4844C17.5222 11.8273 17.7309 13.4219 17.3298 14.9185C16.9287 16.4151 15.9504 17.6916 14.6095 18.468ZM12.3752 2.40625V1.03125C12.3752 0.757746 12.4838 0.495443 12.6772 0.302046C12.8706 0.108649 13.1329 0 13.4064 0C13.6799 0 13.9422 0.108649 14.1356 0.302046C14.329 0.495443 14.4377 0.757746 14.4377 1.03125V2.40625C14.4377 2.67975 14.329 2.94206 14.1356 3.13545C13.9422 3.32885 13.6799 3.4375 13.4064 3.4375C13.1329 3.4375 12.8706 3.32885 12.6772 3.13545C12.4838 2.94206 12.3752 2.67975 12.3752 2.40625ZM15.9502 2.81016L16.6377 1.62422C16.7744 1.38718 16.9997 1.21418 17.264 1.14327C17.5284 1.07235 17.81 1.10934 18.047 1.24609C18.2841 1.38285 18.4571 1.60816 18.528 1.87247C18.5989 2.13678 18.5619 2.41843 18.4252 2.65547L17.7377 3.84141C17.67 3.95883 17.5799 4.06177 17.4724 4.14433C17.3649 4.2269 17.2422 4.28747 17.1114 4.32259C16.9805 4.35771 16.8439 4.36668 16.7096 4.349C16.5752 4.33131 16.4456 4.28732 16.3283 4.21953C16.2109 4.15187 16.1079 4.06173 16.0254 3.95427C15.9428 3.8468 15.8822 3.72411 15.8471 3.59322C15.812 3.46232 15.803 3.32579 15.8207 3.19143C15.8384 3.05707 15.8824 2.92751 15.9502 2.81016ZM21.0634 6.05L19.8775 6.7375C19.7601 6.80521 19.6306 6.84915 19.4962 6.86679C19.3619 6.88443 19.2254 6.87544 19.0945 6.84033C18.9636 6.80522 18.841 6.74467 18.7335 6.66215C18.626 6.57963 18.5358 6.47674 18.4681 6.35938C18.4004 6.24201 18.3565 6.11245 18.3388 5.9781C18.3212 5.84375 18.3302 5.70725 18.3653 5.57638C18.4004 5.4455 18.461 5.32283 18.5435 5.21535C18.626 5.10788 18.7289 5.01771 18.8463 4.95L20.0322 4.2625C20.2692 4.12575 20.5509 4.08876 20.8152 4.15967C21.0795 4.23058 21.3048 4.40359 21.4416 4.64062C21.5783 4.87766 21.6153 5.15932 21.5444 5.42362C21.4735 5.68793 21.3005 5.91325 21.0634 6.05Z" fill="#4D4646"/>
</svg>
