<svg width="18" height="21" viewBox="0 0 18 21" fill="none" xmlns="http://www.w3.org/2000/svg">
<path d="M15.9215 9.56666C15.6326 9.21666 15.2808 8.91333 14.9541 8.61C14.1123 7.91 13.1574 7.40833 12.3533 6.67333C10.4813 4.97 10.0667 2.15833 11.2603 0C10.0667 0.268333 9.02386 0.875 8.13181 1.54C4.87771 3.96667 3.59617 8.24833 5.12899 11.9233C5.17924 12.04 5.2295 12.1567 5.2295 12.3083C5.2295 12.565 5.04104 12.7983 4.78976 12.8917C4.50078 13.0083 4.19924 12.9383 3.96053 12.7517C3.88879 12.6966 3.82908 12.6293 3.78463 12.5533C2.36489 10.885 2.13873 8.49333 3.0936 6.58C0.995399 8.16667 -0.147934 10.85 0.0153995 13.3817C0.0907841 13.965 0.166169 14.5483 0.379758 15.1317C0.555656 15.8317 0.894886 16.5317 1.27181 17.15C2.62873 19.1683 4.97822 20.615 7.5036 20.9067C10.1923 21.2217 13.0695 20.7667 15.13 19.04C17.4292 17.1033 18.2333 14 17.0523 11.34L16.889 11.0367C16.6251 10.5 15.9215 9.56666 15.9215 9.56666ZM11.9513 16.9167C11.5995 17.1967 11.0216 17.5 10.5692 17.6167C9.16206 18.0833 7.75489 17.43 6.92565 16.66C8.42078 16.3333 9.31283 15.3067 9.57668 14.2683C9.79027 13.335 9.38822 12.565 9.22488 11.6667C9.07412 10.8033 9.09924 10.0683 9.43847 9.26333C9.67719 9.70666 9.92847 10.15 10.23 10.5C11.1974 11.6667 12.7177 12.18 13.0444 13.7667C13.0946 13.93 13.1198 14.0933 13.1198 14.2683C13.1574 15.225 12.7051 16.275 11.9513 16.9167Z" fill="#FD6844"/>
</svg>
