<svg width="17" height="32" viewBox="0 0 17 32" fill="none" xmlns="http://www.w3.org/2000/svg">
<path d="M11.2379 4.89178C11.7127 4.6649 12.0847 4.26681 12.2795 3.77703C12.4743 3.28724 12.4776 2.74182 12.2888 2.2497C12.0999 1.75758 11.7328 1.35499 11.2608 1.12233C10.7888 0.889678 10.2466 0.844091 9.74247 0.994676C9.61035 0.703212 9.39865 0.455172 9.13184 0.279217C8.86504 0.103262 8.55401 0.00657288 8.2347 0.000323379C7.91539 -0.00592613 7.60084 0.0785183 7.32738 0.2439C7.05393 0.409281 6.83273 0.648849 6.68936 0.93492C6.51351 0.887923 6.33226 0.864337 6.15027 0.864772C5.66509 0.873297 5.198 1.05088 4.82921 1.36702C4.46041 1.68317 4.21292 2.11815 4.12921 2.5973C4.04551 3.07644 4.13083 3.56985 4.37051 3.9928C4.61019 4.41576 4.98929 4.74188 5.44271 4.91516V6.01934H11.225C11.2276 5.64262 11.2327 5.2659 11.2379 4.89178Z" fill="#FE6A6E"/>
<path d="M0 17H17V29.477C17 30.0885 16.7587 30.6749 16.3293 31.1073C15.8999 31.5397 15.3175 31.7826 14.7102 31.7826H2.28985C1.68254 31.7826 1.10011 31.5397 0.670681 31.1073C0.241251 30.6749 0 30.0885 0 29.477V17Z" fill="#FE6A6E"/>
<path d="M2.28985 6.65218H14.7102C15.3175 6.65218 15.8999 6.90931 16.3293 7.36701C16.7587 7.82472 17 8.4455 17 9.09278V16.2609H0V9.09278C0 8.4455 0.241251 7.82472 0.670681 7.36701C1.10011 6.90931 1.68254 6.65218 2.28985 6.65218Z" fill="#FE6A6E"/>
<path d="M2.21741 11.8261V14.0435" stroke="white" stroke-width="2" stroke-miterlimit="10" stroke-linecap="round"/>
<path d="M2.21741 19.2174V20.6957" stroke="white" stroke-width="2" stroke-miterlimit="10" stroke-linecap="round"/>
</svg>
