<svg width="167" height="194" viewBox="0 0 167 194" fill="none" xmlns="http://www.w3.org/2000/svg">
<path d="M94.2182 39.2332C95.9467 38.4108 97.3007 36.9678 98.0099 35.1924C98.719 33.4171 98.731 31.44 98.0436 29.6562C97.3561 27.8723 96.0198 26.413 94.3014 25.5697C92.5831 24.7264 90.6092 24.5611 88.7742 25.107C88.2932 24.0505 87.5225 23.1514 86.5512 22.5136C85.58 21.8758 84.4477 21.5253 83.2853 21.5026C82.1229 21.48 80.9778 21.7861 79.9823 22.3856C78.9869 22.985 78.1816 23.8534 77.6597 24.8904C77.0195 24.72 76.3597 24.6345 75.6972 24.6361C73.931 24.667 72.2306 25.3107 70.888 26.4566C69.5455 27.6026 68.6445 29.1793 68.3398 30.9161C68.0351 32.6529 68.3457 34.4415 69.2182 35.9746C70.0908 37.5077 71.4708 38.6898 73.1214 39.3179V43.3204H94.171C94.1804 41.9548 94.1993 40.5893 94.2182 39.2332Z" fill="url(#paint0_linear_359_2416)"/>
<path d="M17.9832 156.942C18.5021 157.262 19.0776 157.592 19.7098 157.884C20.3318 158.221 20.9307 158.598 21.5024 159.014C22.0637 159.416 22.5655 159.895 22.9932 160.436C23.4211 160.986 23.7063 161.633 23.8235 162.32C23.939 162.975 23.8871 163.649 23.6725 164.278C23.4695 164.904 23.1493 165.486 22.729 165.992C22.2928 166.509 21.761 166.938 21.1628 167.254C20.5511 167.577 19.8803 167.772 19.1909 167.829C18.14 167.918 17.0823 167.883 16.0396 167.725C15.0444 167.561 14.07 167.289 13.1336 166.915C12.7566 166.777 12.3907 166.61 12.0391 166.416C11.7652 166.28 11.5433 166.059 11.407 165.785C11.3339 165.538 11.3178 165.277 11.3598 165.022C11.392 164.675 11.4681 164.333 11.5862 164.005C11.709 163.674 11.8705 163.358 12.0674 163.064C12.2349 162.799 12.4736 162.587 12.7562 162.451C13.1043 162.293 13.4916 162.241 13.8695 162.301L14.3224 162.433L15.1338 162.659L16.0396 162.922C16.2646 162.994 16.4949 163.047 16.7283 163.082C17.1487 163.199 17.5862 163.24 18.0209 163.205C18.2757 163.158 18.4172 163.064 18.4266 162.932C18.4361 162.8 18.3511 162.63 18.1341 162.442C17.8857 162.217 17.61 162.024 17.3133 161.868C16.8793 161.651 16.4358 161.425 15.9641 161.208C15.4923 160.992 15.0206 160.756 14.5866 160.502C14.141 160.23 13.7238 159.915 13.3411 159.56C12.9459 159.199 12.6253 158.764 12.3976 158.28C11.9665 157.569 11.7564 156.746 11.7938 155.916C11.8353 155.154 12.076 154.417 12.492 153.778C12.9182 153.109 13.4848 152.54 14.1526 152.111C14.8538 151.649 15.6392 151.329 16.4641 151.169C16.9679 151.071 17.4794 151.017 17.9926 151.009C18.5321 150.994 19.072 151.025 19.606 151.103C20.1471 151.18 20.6806 151.303 21.2005 151.471C21.7133 151.625 22.2047 151.844 22.663 152.12C22.8918 152.231 23.0944 152.389 23.2571 152.584C23.4199 152.779 23.539 153.006 23.6065 153.251C23.7106 153.684 23.7106 154.136 23.6065 154.569C23.5157 154.978 23.3797 155.376 23.2008 155.756C23.0802 156.036 22.8801 156.275 22.6252 156.443C22.3801 156.595 22.0913 156.661 21.8044 156.631C21.4107 156.59 21.0257 156.488 20.6627 156.33C20.1165 156.115 19.5463 155.967 18.9644 155.887C18.5781 155.812 18.1808 155.812 17.7945 155.887C17.5209 155.963 17.3982 156.095 17.4076 156.283C17.4171 156.471 17.568 156.688 17.9832 156.942Z" fill="#FE6A6E"/>
<path d="M45.2881 151.433C45.459 151.484 45.6082 151.59 45.7127 151.734C45.8088 151.87 45.8762 152.024 45.9108 152.186C46.0447 152.772 46.133 153.367 46.175 153.966C46.2411 154.682 46.2788 155.454 46.3071 156.292C46.3354 157.131 46.3071 158.006 46.3071 158.911C46.3071 159.815 46.2505 160.709 46.2128 161.585C46.175 162.461 46.109 163.29 46.0429 164.081C45.9769 164.872 45.9014 165.559 45.8354 166.143C45.8082 166.283 45.7572 166.416 45.6844 166.539C45.6116 166.655 45.5111 166.752 45.3919 166.821C45.2428 166.904 45.0797 166.958 44.9107 166.981L43.9672 167.066C43.5022 167.095 43.0359 167.095 42.5708 167.066C42.1192 167.061 41.6697 167.004 41.2311 166.897C41.0633 166.876 40.9025 166.817 40.7617 166.724C40.6208 166.631 40.5037 166.506 40.4197 166.36C40.3374 166.097 40.2898 165.825 40.2781 165.55C40.2781 165.135 40.2215 164.608 40.2026 164.034C40.1838 163.459 40.2026 162.762 40.2026 162.037C40.2026 161.312 40.2026 160.577 40.2026 159.833C39.9385 160.22 39.6837 160.568 39.4384 160.898C39.1931 161.227 38.9761 161.519 38.7685 161.773C38.6043 161.993 38.4279 162.204 38.2402 162.404C38.1467 162.525 38.0315 162.627 37.9005 162.706C37.6093 162.879 37.29 163 36.957 163.064C36.6285 163.135 36.2931 163.17 35.9569 163.167C35.6398 163.172 35.3232 163.14 35.0134 163.073C34.7762 163.03 34.5471 162.95 34.3341 162.838C34.1911 162.724 34.0585 162.598 33.9378 162.461C33.7491 162.263 33.5321 162.009 33.2679 161.708L32.4187 160.662C32.1168 160.285 31.796 159.881 31.4752 159.457C31.4752 160.22 31.5507 160.973 31.579 161.726C31.6073 162.48 31.579 163.167 31.579 163.798C31.579 164.429 31.579 164.957 31.579 165.39C31.5817 165.67 31.5627 165.95 31.5224 166.228C31.4247 166.483 31.2368 166.694 30.9941 166.821C30.7102 166.951 30.4078 167.037 30.0977 167.075C29.7015 167.141 29.2958 167.179 28.8712 167.207C28.4466 167.236 28.0598 167.207 27.6918 167.207C27.4181 167.206 27.1457 167.171 26.8804 167.104C26.74 167.063 26.6087 166.996 26.4935 166.906C26.3883 166.809 26.3185 166.68 26.2954 166.539C26.0407 164.504 25.8331 162.574 25.6821 160.728C25.6161 159.946 25.55 159.146 25.4934 158.317C25.4368 157.488 25.3896 156.707 25.3613 155.944C25.333 155.181 25.3047 154.465 25.3047 153.806C25.299 153.243 25.3274 152.68 25.3896 152.121C25.4048 152 25.4467 151.884 25.5123 151.781C25.5825 151.669 25.6683 151.568 25.767 151.48C25.9007 151.36 26.0583 151.271 26.2294 151.216C26.4598 151.127 26.7008 151.066 26.9464 151.038C27.2483 150.99 27.588 150.953 27.9371 150.934C28.2862 150.915 28.6636 150.934 29.041 150.934C29.4184 150.934 29.7769 150.934 30.1072 150.934C30.4374 150.934 30.7204 151 30.9752 151.047C31.1624 151.078 31.3419 151.145 31.5035 151.245C31.867 151.611 32.1984 152.008 32.4942 152.431C32.8716 152.94 33.249 153.505 33.6264 154.108C34.0038 154.71 34.4001 155.332 34.7869 155.991C35.1738 156.65 35.5229 157.187 35.8437 157.686C36.5324 156.801 37.1363 156.001 37.6552 155.294C38.1741 154.588 38.5987 153.966 39.0516 153.411C39.4001 152.953 39.775 152.516 40.1743 152.102C40.463 151.785 40.8046 151.52 41.1839 151.32C41.4874 151.208 41.8049 151.139 42.1274 151.113C42.5389 151.084 42.9519 151.084 43.3634 151.113C43.7517 151.123 44.1391 151.154 44.5239 151.207C44.788 151.246 45.0453 151.322 45.2881 151.433Z" fill="#FE6A6E"/>
<path d="M58.0254 150.924C58.3117 151.185 58.5345 151.507 58.6764 151.866C58.9406 152.403 59.2425 153.072 59.6199 153.872C59.9973 154.673 60.2898 155.577 60.6483 156.584C61.0068 157.592 61.3465 158.619 61.6767 159.664C62.007 160.709 62.3089 161.745 62.6202 162.753C62.9316 163.761 63.1392 164.683 63.3184 165.493C63.3516 165.639 63.3516 165.79 63.3184 165.936C63.2815 166.061 63.2241 166.178 63.1486 166.284C63.0505 166.423 62.9122 166.528 62.7523 166.586C62.5636 166.661 62.2617 166.784 61.8088 166.925C61.3577 167.078 60.8977 167.204 60.4313 167.301C59.9795 167.405 59.5173 167.455 59.0538 167.452C58.708 167.471 58.3689 167.352 58.1103 167.123C57.9586 166.93 57.8347 166.718 57.7423 166.492C57.5914 166.162 57.4215 165.748 57.2234 165.258L55.9119 165.079C55.459 165.022 55.0156 164.957 54.5816 164.881C54.1476 164.815 53.7419 164.749 53.355 164.674L52.3549 164.486C52.204 164.862 52.0624 165.201 51.9492 165.503C51.836 165.804 51.7228 166.068 51.6473 166.284C51.5718 166.501 51.4586 166.765 51.3925 166.962C51.3483 167.096 51.258 167.209 51.1378 167.283C51.0228 167.35 50.8934 167.388 50.7604 167.396C50.5513 167.432 50.3374 167.432 50.1283 167.396C49.8279 167.353 49.5314 167.287 49.2414 167.198C48.9202 167.112 48.6051 167.005 48.2979 166.878C48.0623 166.777 47.8479 166.634 47.6657 166.454C47.5094 166.282 47.428 166.055 47.4393 165.823C47.4751 165.469 47.5414 165.12 47.6374 164.778C47.7601 164.288 47.911 163.704 48.1092 163.035C48.3073 162.367 48.5337 161.642 48.7885 160.851C49.0432 160.059 49.3168 159.259 49.5905 158.449C49.8641 157.639 50.1377 156.848 50.4113 156.066C50.6849 155.285 50.9397 154.588 51.1755 153.957C51.4114 153.326 51.619 152.78 51.8077 152.328C51.9964 151.876 52.119 151.584 52.204 151.386C52.3455 151.201 52.5395 151.064 52.7606 150.99C53.0651 150.87 53.3813 150.782 53.7041 150.727C54.0815 150.67 54.4778 150.614 54.9024 150.585C55.3202 150.557 55.7394 150.557 56.1572 150.585C56.5239 150.608 56.8892 150.648 57.2517 150.708C57.5179 150.746 57.778 150.819 58.0254 150.924ZM53.572 161.095L54.6571 161.255L55.8364 161.444C55.6289 160.832 55.4307 160.229 55.242 159.626C55.0533 159.024 54.8646 158.43 54.6854 157.846C54.5155 158.374 54.3363 158.911 54.1476 159.457C53.9589 160.003 53.7796 160.549 53.572 161.095Z" fill="#FE6A6E"/>
<path d="M71.6307 149.738C72.7522 149.668 73.8756 149.842 74.9235 150.246C75.8662 150.605 76.7193 151.164 77.4238 151.885C78.0869 152.562 78.5814 153.384 78.8674 154.287C79.1542 155.202 79.1933 156.177 78.9806 157.112C78.8788 157.578 78.7204 158.03 78.5088 158.458C78.2906 158.9 78.0349 159.322 77.7446 159.72C77.4488 160.114 77.1137 160.477 76.7445 160.803C76.3822 161.125 75.9905 161.412 75.5745 161.66C75.8198 161.811 76.0463 161.981 76.2822 162.16L76.9426 162.706C77.544 163.213 78.074 163.799 78.5183 164.448C78.5578 164.535 78.5863 164.627 78.6032 164.721C78.6284 164.817 78.6284 164.917 78.6032 165.013C78.5551 165.142 78.4776 165.258 78.3767 165.352L78.0843 165.635L77.6502 166.021C77.4815 166.168 77.3051 166.306 77.1219 166.435L76.5652 166.84C76.3659 166.99 76.158 167.129 75.9425 167.254C75.8001 167.343 75.638 167.394 75.4708 167.405C75.3014 167.398 75.1377 167.342 74.999 167.245C74.7787 167.101 74.5675 166.944 74.3669 166.774L73.5177 166.105C73.1969 165.851 72.8856 165.597 72.5742 165.352C72.2628 165.107 72.0741 164.938 71.8194 164.74L71.1118 164.156C71.1118 164.778 71.1118 165.371 71.1118 165.917C71.1118 166.463 71.1118 166.944 71.0363 167.377C71.0123 167.535 70.9711 167.689 70.9136 167.838C70.847 167.966 70.7574 168.081 70.6495 168.177C70.5178 168.294 70.3528 168.367 70.1777 168.385C69.8658 168.445 69.5508 168.489 69.2342 168.516C68.7597 168.545 68.284 168.545 67.8095 168.516C67.3472 168.498 66.8883 168.429 66.4414 168.309C66.2618 168.274 66.0919 168.2 65.9437 168.093C65.7954 167.985 65.6723 167.847 65.5828 167.688C65.4756 167.383 65.4028 167.067 65.3658 166.746C65.2904 166.247 65.2149 165.635 65.1488 164.909C65.0828 164.184 65.0167 163.384 64.9601 162.499C64.9035 161.613 64.8469 160.719 64.7997 159.796C64.7526 158.873 64.7054 157.969 64.6771 157.084C64.6488 156.198 64.611 155.388 64.6016 154.663C64.5922 153.938 64.6016 153.317 64.6016 152.78C64.5907 152.446 64.6128 152.111 64.6677 151.782C64.7382 151.586 64.8483 151.408 64.9912 151.257C65.1341 151.106 65.3066 150.987 65.4979 150.906C66.0426 150.627 66.6192 150.415 67.2151 150.275C67.9386 150.096 68.6729 149.964 69.4135 149.879C70.14 149.842 70.9042 149.785 71.6307 149.738ZM70.8948 158.619C71.2822 158.581 71.6629 158.492 72.027 158.355C72.4349 158.22 72.8152 158.012 73.1497 157.743C73.4686 157.494 73.7213 157.17 73.8857 156.801C73.9713 156.595 74.0154 156.374 74.0154 156.151C74.0154 155.928 73.9713 155.707 73.8857 155.501C73.7733 155.226 73.5746 154.995 73.3196 154.842C73.0287 154.676 72.7083 154.567 72.3761 154.522C72.0409 154.479 71.7017 154.479 71.3665 154.522C71.0453 154.544 70.7282 154.608 70.423 154.71C70.4985 155.275 70.5645 155.897 70.64 156.594C70.7155 157.291 70.8099 157.912 70.8948 158.637V158.619Z" fill="#FE6A6E"/>
<path d="M94.0295 150.482C94.1564 150.512 94.2775 150.563 94.388 150.633C94.4969 150.709 94.5872 150.809 94.6522 150.924C94.735 151.073 94.7894 151.236 94.8126 151.405C94.8126 151.621 94.8126 151.951 94.8126 152.403C94.8404 152.873 94.8404 153.345 94.8126 153.816C94.7718 154.277 94.6929 154.733 94.5767 155.181C94.5486 155.345 94.4883 155.502 94.3992 155.643C94.3102 155.783 94.1942 155.905 94.0578 156C93.7719 156.099 93.4732 156.156 93.1709 156.17C92.7086 156.17 92.1425 156.245 91.4726 156.274C91.4726 156.82 91.4726 157.394 91.4726 158.006L91.416 159.89C91.416 160.518 91.3877 161.146 91.3311 161.773C91.3311 162.404 91.2556 162.998 91.2179 163.572C91.133 164.919 91.0292 166.256 90.9065 167.593C90.9019 167.666 90.8798 167.737 90.842 167.799C90.8042 167.861 90.7519 167.913 90.6895 167.951C90.5447 168.047 90.3896 168.126 90.2272 168.187C89.9204 168.277 89.6033 168.327 89.2837 168.337C88.8591 168.337 88.4062 168.394 87.9156 168.403C87.4371 168.412 86.9584 168.396 86.4815 168.356C86.1102 168.332 85.7445 168.252 85.3965 168.121C85.2599 168.082 85.133 168.015 85.024 167.924C84.9151 167.834 84.8266 167.721 84.7643 167.593C84.6917 167.329 84.6474 167.057 84.6322 166.783C84.6322 166.35 84.5568 165.842 84.519 165.183C84.4813 164.523 84.4624 163.855 84.4341 163.082C84.4058 162.31 84.4341 161.519 84.4341 160.709C84.4341 159.899 84.4341 159.127 84.4341 158.355C84.4341 157.583 84.4341 156.886 84.4341 156.236C83.6416 156.236 82.9622 156.179 82.3961 156.142C82.0368 156.14 81.6789 156.096 81.33 156.01C81.2182 155.968 81.1224 155.892 81.0564 155.793C80.9775 155.69 80.9081 155.579 80.8488 155.464C80.728 155.164 80.6609 154.845 80.6507 154.522C80.6129 154.126 80.594 153.721 80.594 153.307C80.5929 152.917 80.6118 152.527 80.6507 152.139C80.6646 151.871 80.7089 151.606 80.7827 151.348C80.8285 151.208 80.8988 151.078 80.9903 150.962C81.0294 150.908 81.0803 150.864 81.1392 150.833C81.1981 150.802 81.2634 150.785 81.33 150.783C83.1038 150.614 84.8021 150.482 86.406 150.407C87.0948 150.359 87.8024 150.331 88.5195 150.312C89.2365 150.293 89.9442 150.312 90.6235 150.312C91.3028 150.312 91.9349 150.312 92.5105 150.359C93.0188 150.369 93.5261 150.41 94.0295 150.482Z" fill="#FE6A6E"/>
<path d="M107.644 151.179C107.753 151.253 107.845 151.347 107.916 151.457C107.987 151.567 108.036 151.69 108.059 151.819C108.158 152.167 108.222 152.523 108.248 152.883C108.248 153.269 108.248 153.637 108.248 153.995C108.248 154.352 108.248 154.607 108.248 154.757C108.234 154.874 108.196 154.986 108.138 155.088C108.08 155.19 108.002 155.279 107.908 155.351C107.82 155.41 107.72 155.451 107.616 155.473C107.013 155.569 106.405 155.625 105.795 155.643C105.069 155.643 104.295 155.643 103.483 155.643C103.483 156.085 103.483 156.584 103.483 157.046C103.483 157.507 103.483 158.035 103.483 158.553C104.191 158.553 104.823 158.553 105.37 158.628C105.713 158.619 106.053 158.68 106.371 158.807C106.559 158.968 106.68 159.193 106.71 159.438C106.797 159.783 106.848 160.137 106.861 160.493C106.861 160.879 106.861 161.246 106.861 161.604C106.861 161.962 106.861 162.216 106.861 162.367C106.844 162.501 106.806 162.631 106.748 162.753C106.704 162.834 106.65 162.91 106.588 162.979C106.529 163.036 106.458 163.078 106.38 163.101C105.92 163.197 105.453 163.251 104.984 163.261C104.427 163.261 103.833 163.261 103.21 163.261C103.163 163.732 103.125 164.203 103.087 164.731C103.049 165.258 103.021 165.672 102.993 166.115C102.965 166.558 102.917 167.057 102.889 167.537C102.887 167.608 102.867 167.677 102.833 167.74C102.798 167.802 102.75 167.855 102.691 167.895C102.552 167.992 102.4 168.069 102.238 168.121C101.933 168.218 101.615 168.272 101.295 168.281C100.861 168.281 100.398 168.337 99.9076 168.347C99.4257 168.352 98.9439 168.333 98.464 168.29C98.0933 168.268 97.7279 168.191 97.379 168.064C97.0205 167.923 96.8223 167.744 96.7657 167.537C96.6545 167.157 96.5911 166.765 96.577 166.369C96.5204 165.738 96.4732 164.966 96.4261 164.071C96.3789 163.177 96.3506 162.188 96.3223 161.105C96.294 160.022 96.3223 158.976 96.3223 157.95C96.3223 156.923 96.3223 155.972 96.3223 155.125C96.3223 154.277 96.3789 153.543 96.4355 153.034C96.4537 152.803 96.4852 152.574 96.5298 152.347C96.5725 152.132 96.6558 151.927 96.7752 151.744C96.8916 151.565 97.0463 151.414 97.228 151.301C97.4442 151.17 97.6924 151.102 97.9451 151.103L99.3981 151.019L101.285 150.953C101.974 150.953 102.672 150.953 103.37 150.953H105.323C105.918 150.953 106.427 151 106.842 151.038C107.115 151.049 107.384 151.096 107.644 151.179Z" fill="#FE6A6E"/>
<path d="M119.419 150.943C119.893 150.938 120.365 150.992 120.825 151.103C121.196 151.194 121.552 151.336 121.882 151.527C122.168 151.685 122.432 151.882 122.665 152.111C122.868 152.307 123.046 152.529 123.193 152.77C123.536 153.323 123.74 153.949 123.788 154.597C123.873 155.624 123.929 156.669 123.976 157.715C124.023 158.76 123.976 159.598 123.976 160.643C123.961 161.626 123.895 162.606 123.778 163.582C123.733 163.998 123.621 164.405 123.448 164.787C123.168 165.411 122.729 165.95 122.174 166.35C121.925 166.523 121.659 166.671 121.382 166.793C120.728 167.066 120.032 167.228 119.325 167.273L115.211 167.339H114.466C114.117 167.324 113.77 167.28 113.428 167.207C113.028 167.128 112.636 167.011 112.258 166.859C111.854 166.703 111.479 166.484 111.145 166.209C110.788 165.918 110.487 165.563 110.258 165.164C109.982 164.687 109.808 164.157 109.748 163.61C109.635 162.634 109.572 161.654 109.56 160.672C109.56 159.626 109.56 158.656 109.56 157.743C109.56 156.829 109.663 155.652 109.729 154.626C109.777 153.978 109.981 153.351 110.324 152.799C110.471 152.559 110.645 152.338 110.843 152.139C111.072 151.906 111.336 151.709 111.626 151.556C111.959 151.365 112.318 151.222 112.692 151.132C113.152 151.02 113.624 150.966 114.098 150.972L119.419 150.943ZM116.815 162.31C117.221 162.31 117.56 162.31 117.834 162.31C118.069 162.305 118.298 162.233 118.495 162.103C118.675 161.967 118.805 161.775 118.863 161.557C118.953 161.213 118.998 160.858 118.995 160.502C118.995 160.182 118.995 159.833 118.995 159.476C118.995 159.118 118.995 158.76 118.995 158.44C118.995 158.12 118.995 157.809 118.995 157.545C118.985 157.355 118.959 157.166 118.919 156.98C118.871 156.752 118.782 156.535 118.655 156.34C118.551 156.191 118.402 156.079 118.23 156.019C118.01 155.944 117.782 155.893 117.551 155.869C117.31 155.839 117.067 155.823 116.825 155.822C116.567 155.804 116.308 155.839 116.065 155.925C115.822 156.011 115.598 156.145 115.409 156.321C115.052 156.815 114.875 157.417 114.909 158.025C114.909 158.374 114.853 158.76 114.834 159.193C114.815 159.626 114.834 160.022 114.834 160.417C114.836 160.765 114.871 161.112 114.938 161.453C114.962 161.681 115.07 161.892 115.239 162.047C115.448 162.165 115.68 162.239 115.919 162.263C116.17 162.276 116.469 162.291 116.815 162.31Z" fill="#FE6A6E"/>
<path d="M135.336 150.943C135.81 150.938 136.282 150.992 136.742 151.103C137.113 151.194 137.468 151.336 137.799 151.527C138.085 151.685 138.348 151.882 138.582 152.111C138.783 152.31 138.96 152.531 139.11 152.77C139.453 153.323 139.657 153.949 139.704 154.597C139.789 155.624 139.846 156.669 139.893 157.715C139.94 158.76 139.893 159.598 139.893 160.643C139.878 161.626 139.812 162.606 139.695 163.582C139.65 163.998 139.538 164.405 139.365 164.787C139.222 165.126 139.031 165.443 138.799 165.729C138.59 165.98 138.349 166.201 138.082 166.388C137.837 166.562 137.574 166.71 137.299 166.831C136.644 167.104 135.949 167.266 135.242 167.311L131.128 167.377H130.383C130.034 167.362 129.686 167.318 129.345 167.245C128.944 167.167 128.553 167.05 128.175 166.897C127.77 166.743 127.394 166.523 127.062 166.247C126.704 165.955 126.404 165.601 126.175 165.201C125.899 164.724 125.725 164.195 125.665 163.648C125.552 162.672 125.489 161.691 125.476 160.709C125.476 159.664 125.476 158.694 125.476 157.78C125.476 156.867 125.58 155.69 125.646 154.663C125.694 153.725 126.091 152.838 126.76 152.177C126.988 151.946 127.248 151.749 127.533 151.593C127.871 151.404 128.233 151.261 128.609 151.169C129.069 151.058 129.541 151.004 130.015 151.009L135.336 150.943ZM132.732 162.31C133.138 162.31 133.477 162.31 133.751 162.31C133.986 162.305 134.215 162.233 134.411 162.103C134.592 161.967 134.721 161.775 134.779 161.557C134.87 161.213 134.915 160.858 134.911 160.502C134.911 160.182 134.911 159.833 134.911 159.476C134.911 159.118 134.911 158.76 134.911 158.44C134.911 158.12 134.911 157.809 134.911 157.545C134.901 157.355 134.876 157.166 134.836 156.98C134.784 156.753 134.695 156.537 134.572 156.34C134.466 156.188 134.314 156.076 134.138 156.019C133.921 155.944 133.696 155.893 133.468 155.869C133.224 155.838 132.978 155.823 132.732 155.822C132.476 155.805 132.219 155.841 131.978 155.927C131.736 156.012 131.514 156.147 131.326 156.321C130.968 156.815 130.792 157.417 130.826 158.025C130.826 158.374 130.769 158.76 130.751 159.193C130.732 159.626 130.751 160.022 130.751 160.417C130.753 160.765 130.788 161.112 130.854 161.453C130.879 161.681 130.987 161.892 131.156 162.047C131.363 162.163 131.59 162.237 131.826 162.263C132.09 162.263 132.383 162.291 132.732 162.31Z" fill="#FE6A6E"/>
<path d="M155.678 154.108C156.125 154.716 156.475 155.389 156.716 156.104C156.96 156.828 157.096 157.583 157.122 158.345C157.188 159.328 157.043 160.314 156.697 161.237C156.356 162.11 155.864 162.916 155.244 163.619C154.601 164.352 153.854 164.987 153.027 165.503C152.169 166.033 151.259 166.471 150.309 166.812C149.345 167.155 148.35 167.408 147.337 167.565C146.358 167.721 145.366 167.781 144.375 167.744C144.111 167.744 143.846 167.744 143.592 167.669C143.345 167.636 143.102 167.583 142.865 167.509C142.66 167.454 142.465 167.365 142.29 167.245C142.139 167.152 142.018 167.018 141.941 166.859C141.842 166.554 141.781 166.237 141.761 165.917C141.714 165.437 141.667 164.843 141.629 164.137C141.591 163.431 141.544 162.649 141.516 161.792C141.488 160.935 141.45 160.059 141.431 159.174C141.412 158.289 141.431 157.413 141.384 156.556V154.202C141.384 153.495 141.384 152.902 141.441 152.412C141.452 152.096 141.486 151.782 141.544 151.471C141.597 151.311 141.691 151.168 141.818 151.056C141.953 150.949 142.102 150.86 142.261 150.793C142.425 150.727 142.596 150.68 142.771 150.651L143.29 150.567C144.153 150.452 145.023 150.386 145.894 150.369C146.792 150.35 147.691 150.397 148.583 150.51C149.477 150.631 150.358 150.833 151.215 151.113C152.072 151.391 152.893 151.77 153.659 152.243C154.039 152.493 154.399 152.774 154.734 153.081C155.081 153.392 155.397 153.736 155.678 154.108ZM147.658 162.367C148.48 162.296 149.278 162.052 149.998 161.651C150.59 161.315 151.097 160.848 151.479 160.285C151.802 159.787 151.985 159.211 152.008 158.619C152.034 158.033 151.869 157.454 151.536 156.97C151.135 156.402 150.587 155.953 149.951 155.671C149.074 155.277 148.128 155.06 147.168 155.03C147.271 156.179 147.366 157.375 147.47 158.609C147.573 159.843 147.592 161.095 147.62 162.367H147.658Z" fill="#FE6A6E"/>
<path d="M53.308 83.8156H115.579V129.123C115.579 131.343 114.695 133.473 113.122 135.043C111.549 136.613 109.416 137.495 107.191 137.495H61.6957C59.4712 137.495 57.3377 136.613 55.7647 135.043C54.1917 133.473 53.308 131.343 53.308 129.123V83.8156Z" fill="url(#paint1_linear_359_2416)"/>
<path d="M61.6957 47.0874H107.191C109.416 47.0874 111.549 47.9695 113.122 49.5395C114.695 51.1096 115.579 53.2391 115.579 55.4595V80.0486H53.308V55.4595C53.308 53.2391 54.1917 51.1096 55.7647 49.5395C57.3377 47.9695 59.4712 47.0874 61.6957 47.0874Z" fill="url(#paint2_linear_359_2416)"/>
<path d="M61.4786 65.5551V73.8424" stroke="whitr" stroke-width="4" stroke-miterlimit="10"/>
<path d="M61.4786 88.4207V96.708" stroke="white" stroke-width="4" stroke-miterlimit="10"/>
<defs>
<linearGradient id="paint0_linear_359_2416" x1="68.0926" y1="32.3867" x2="99.0206" y2="32.3867" gradientUnits="userSpaceOnUse">
<stop stop-color="#FE6A6E"/>
<stop offset="1" stop-color="#FD6844"/>
</linearGradient>
<linearGradient id="paint1_linear_359_2416" x1="48.0904" y1="131.308" x2="105.716" y2="95.5007" gradientUnits="userSpaceOnUse">
<stop stop-color="#FE6A6E"/>
<stop offset="1" stop-color="#FD6844"/>
</linearGradient>
<linearGradient id="paint2_linear_359_2416" x1="47.5487" y1="83.4741" x2="112.099" y2="52.5422" gradientUnits="userSpaceOnUse">
<stop stop-color="#FE6A6E"/>
<stop offset="1" stop-color="#FD6844"/>
</linearGradient>
</defs>
</svg>
