<svg width="32" height="61" viewBox="0 0 32 61" fill="none" xmlns="http://www.w3.org/2000/svg">
<path d="M20.9553 9.98222C21.8351 9.56254 22.5243 8.82617 22.8852 7.92019C23.2462 7.0142 23.2523 6.0053 22.9024 5.09499C22.5525 4.18468 21.8723 3.43997 20.9977 3.00962C20.1231 2.57926 19.1185 2.49494 18.1844 2.77348C17.9396 2.23434 17.5474 1.77553 17.053 1.45005C16.5587 1.12457 15.9824 0.945722 15.3907 0.934161C14.7991 0.922601 14.2162 1.0788 13.7096 1.38472C13.2029 1.69064 12.793 2.13378 12.5274 2.66295C12.2016 2.57602 11.8657 2.53239 11.5285 2.53319C10.6295 2.54896 9.76406 2.87744 9.08073 3.46224C8.3974 4.04703 7.93882 4.85166 7.78373 5.73796C7.62864 6.62427 7.78672 7.53696 8.23082 8.31933C8.67493 9.1017 9.37735 9.70494 10.2175 10.0255V12.0679H20.9313C20.9361 11.3711 20.9457 10.6743 20.9553 9.98222Z" fill="#FE6A6E"/>
<path d="M0.132751 32.733H31.8277V55.8539C31.8277 56.987 31.3779 58.0737 30.5772 58.8749C29.7766 59.6761 28.6907 60.1262 27.5585 60.1262H4.40196C3.2697 60.1262 2.18381 59.6761 1.38317 58.8749C0.582542 58.0737 0.132751 56.987 0.132751 55.8539V32.733Z" fill="#FE6A6E"/>
<path d="M4.40196 13.9903H27.5585C28.6907 13.9903 29.7766 14.4404 30.5772 15.2416C31.3779 16.0429 31.8277 17.1296 31.8277 18.2627V30.8107H0.132751V18.2627C0.132751 17.1296 0.582542 16.0429 1.38317 15.2416C2.18381 14.4404 3.2697 13.9903 4.40196 13.9903Z" fill="#FE6A6E"/>
<path d="M4.2915 23.4145V27.6437" stroke="white" stroke-width="2" stroke-miterlimit="10" stroke-linecap="round"/>
<path d="M4.2915 36.0442V40.2733" stroke="white" stroke-width="2" stroke-miterlimit="10" stroke-linecap="round"/>
</svg>
