<svg width="32" height="32" viewBox="0 0 32 32" fill="none" xmlns="http://www.w3.org/2000/svg">
<g filter="url(#filter0_d_155_2286)">
<path d="M9 0C7.14348 0 5.36301 0.737498 4.05025 2.05025C2.7375 3.36301 2 5.14348 2 7V8.75C2 9.21413 2.18437 9.65925 2.51256 9.98744C2.84075 10.3156 3.28587 10.5 3.75 10.5C4.21413 10.5 4.65925 10.3156 4.98744 9.98744C5.31563 9.65925 5.5 9.21413 5.5 8.75V7C5.5 6.07174 5.86875 5.1815 6.52513 4.52513C7.1815 3.86875 8.07174 3.5 9 3.5H10.75C11.2141 3.5 11.6592 3.31563 11.9874 2.98744C12.3156 2.65925 12.5 2.21413 12.5 1.75C12.5 1.28587 12.3156 0.840752 11.9874 0.512563C11.6592 0.184375 11.2141 0 10.75 0H9ZM21.25 0C20.7859 0 20.3408 0.184375 20.0126 0.512563C19.6844 0.840752 19.5 1.28587 19.5 1.75C19.5 2.21413 19.6844 2.65925 20.0126 2.98744C20.3408 3.31563 20.7859 3.5 21.25 3.5H23C23.9283 3.5 24.8185 3.86875 25.4749 4.52513C26.1313 5.1815 26.5 6.07174 26.5 7V8.75C26.5 9.21413 26.6844 9.65925 27.0126 9.98744C27.3408 10.3156 27.7859 10.5 28.25 10.5C28.7141 10.5 29.1592 10.3156 29.4874 9.98744C29.8156 9.65925 30 9.21413 30 8.75V7C30 5.14348 29.2625 3.36301 27.9497 2.05025C26.637 0.737498 24.8565 0 23 0H21.25ZM5.5 19.25C5.5 18.7859 5.31563 18.3408 4.98744 18.0126C4.65925 17.6844 4.21413 17.5 3.75 17.5C3.28587 17.5 2.84075 17.6844 2.51256 18.0126C2.18437 18.3408 2 18.7859 2 19.25V21C2 22.8565 2.7375 24.637 4.05025 25.9497C5.36301 27.2625 7.14348 28 9 28H10.75C11.2141 28 11.6592 27.8156 11.9874 27.4874C12.3156 27.1592 12.5 26.7141 12.5 26.25C12.5 25.7859 12.3156 25.3408 11.9874 25.0126C11.6592 24.6844 11.2141 24.5 10.75 24.5H9C8.07174 24.5 7.1815 24.1313 6.52513 23.4749C5.86875 22.8185 5.5 21.9283 5.5 21V19.25ZM30 19.25C30 18.7859 29.8156 18.3408 29.4874 18.0126C29.1592 17.6844 28.7141 17.5 28.25 17.5C27.7859 17.5 27.3408 17.6844 27.0126 18.0126C26.6844 18.3408 26.5 18.7859 26.5 19.25V21C26.5 21.9283 26.1313 22.8185 25.4749 23.4749C24.8185 24.1313 23.9283 24.5 23 24.5H21.25C20.7859 24.5 20.3408 24.6844 20.0126 25.0126C19.6844 25.3408 19.5 25.7859 19.5 26.25C19.5 26.7141 19.6844 27.1592 20.0126 27.4874C20.3408 27.8156 20.7859 28 21.25 28H23C24.8565 28 26.637 27.2625 27.9497 25.9497C29.2625 24.637 30 22.8565 30 21V19.25ZM10.75 12.25C10.2859 12.25 9.84075 12.4344 9.51256 12.7626C9.18437 13.0908 9 13.5359 9 14C9 14.4641 9.18437 14.9092 9.51256 15.2374C9.84075 15.5656 10.2859 15.75 10.75 15.75H21.25C21.7141 15.75 22.1592 15.5656 22.4874 15.2374C22.8156 14.9092 23 14.4641 23 14C23 13.5359 22.8156 13.0908 22.4874 12.7626C22.1592 12.4344 21.7141 12.25 21.25 12.25H10.75Z" fill="#FD6844"/>
</g>
<defs>
<filter id="filter0_d_155_2286" x="0" y="0" width="32" height="32" filterUnits="userSpaceOnUse" color-interpolation-filters="sRGB">
<feFlood flood-opacity="0" result="BackgroundImageFix"/>
<feColorMatrix in="SourceAlpha" type="matrix" values="0 0 0 0 0 0 0 0 0 0 0 0 0 0 0 0 0 0 127 0" result="hardAlpha"/>
<feOffset dy="2"/>
<feGaussianBlur stdDeviation="1"/>
<feComposite in2="hardAlpha" operator="out"/>
<feColorMatrix type="matrix" values="0 0 0 0 0 0 0 0 0 0 0 0 0 0 0 0 0 0 0.08 0"/>
<feBlend mode="normal" in2="BackgroundImageFix" result="effect1_dropShadow_155_2286"/>
<feBlend mode="normal" in="SourceGraphic" in2="effect1_dropShadow_155_2286" result="shape"/>
</filter>
</defs>
</svg>
